<svg width="135" height="40" viewBox="0 0 135 40" fill="none" xmlns="http://www.w3.org/2000/svg">
<path d="M30.1281 19.7841C30.0991 16.5611 32.7671 14.9931 32.8891 14.9201C31.3781 12.7171 29.0361 12.4161 28.2131 12.3921C26.2461 12.1851 24.3381 13.5691 23.3361 13.5691C22.3141 13.5691 20.7711 12.4121 19.1081 12.4461C16.9681 12.4791 14.9661 13.7181 13.8681 15.6421C11.6021 19.5651 13.2921 25.3301 15.4631 28.5011C16.5491 30.0541 17.8181 31.7881 19.4791 31.7271C21.1041 31.6601 21.7111 30.6911 23.6721 30.6911C25.6151 30.6911 26.1851 31.7271 27.8791 31.6881C29.6231 31.6601 30.7211 30.1281 31.7691 28.5611C33.0241 26.7811 33.5281 25.0281 33.5481 24.9381C33.5071 24.9241 30.1611 23.6471 30.1281 19.7841Z" fill="white"/>
<path d="M26.928 10.306C27.802 9.21304 28.4 7.72604 28.234 6.21704C26.969 6.27304 25.387 7.09204 24.476 8.16104C23.67 9.10304 22.95 10.647 23.136 12.099C24.557 12.205 26.016 11.382 26.928 10.306Z" fill="white"/>
<path d="M53.6452 31.5039H51.3742L50.1302 27.5949H45.8062L44.6212 31.5039H42.4102L46.6942 18.1959H49.3402L53.6452 31.5039ZM49.7552 25.9549L48.6302 22.4799C48.5112 22.1249 48.2882 21.2889 47.9592 19.9729H47.9192C47.7882 20.5389 47.5772 21.3749 47.2872 22.4799L46.1822 25.9549H49.7552Z" fill="white"/>
<path d="M64.6624 26.5879C64.6624 28.2199 64.2214 29.5099 63.3394 30.4569C62.5494 31.2999 61.5684 31.7209 60.3974 31.7209C59.1334 31.7209 58.2254 31.2669 57.6724 30.3589H57.6324V35.4139H55.5004V25.0669C55.5004 24.0409 55.4734 22.9879 55.4214 21.9079H57.2964L57.4154 23.4289H57.4554C58.1664 22.2829 59.2454 21.7109 60.6934 21.7109C61.8254 21.7109 62.7704 22.1579 63.5264 23.0529C64.2844 23.9489 64.6624 25.1269 64.6624 26.5879ZM62.4904 26.6659C62.4904 25.7319 62.2804 24.9619 61.8584 24.3559C61.3974 23.7239 60.7784 23.4079 60.0024 23.4079C59.4764 23.4079 58.9984 23.5839 58.5714 23.9309C58.1434 24.2809 57.8634 24.7379 57.7324 25.3039C57.6664 25.5679 57.6334 25.7839 57.6334 25.9539V27.5539C57.6334 28.2519 57.8474 28.8409 58.2754 29.3219C58.7034 29.8029 59.2594 30.0429 59.9434 30.0429C60.7464 30.0429 61.3714 29.7329 61.8184 29.1149C62.2664 28.4959 62.4904 27.6799 62.4904 26.6659Z" fill="white"/>
<path d="M75.699 26.5879C75.699 28.2199 75.258 29.5099 74.375 30.4569C73.586 31.2999 72.605 31.7209 71.434 31.7209C70.17 31.7209 69.262 31.2669 68.71 30.3589H68.67V35.4139H66.538V25.0669C66.538 24.0409 66.511 22.9879 66.459 21.9079H68.334L68.453 23.4289H68.493C69.203 22.2829 70.282 21.7109 71.731 21.7109C72.862 21.7109 73.807 22.1579 74.565 23.0529C75.32 23.9489 75.699 25.1269 75.699 26.5879ZM73.527 26.6659C73.527 25.7319 73.316 24.9619 72.894 24.3559C72.433 23.7239 71.816 23.4079 71.039 23.4079C70.512 23.4079 70.035 23.5839 69.607 23.9309C69.179 24.2809 68.9 24.7379 68.769 25.3039C68.704 25.5679 68.67 25.7839 68.67 25.9539V27.5539C68.67 28.2519 68.884 28.8409 69.31 29.3219C69.738 29.8019 70.294 30.0429 70.98 30.0429C71.783 30.0429 72.408 29.7329 72.855 29.1149C73.303 28.4959 73.527 27.6799 73.527 26.6659Z" fill="white"/>
<path d="M88.0392 27.772C88.0392 28.904 87.6462 29.825 86.8572 30.536C85.9902 31.313 84.7832 31.701 83.2322 31.701C81.8002 31.701 80.6522 31.425 79.7832 30.872L80.2772 29.095C81.2132 29.661 82.2402 29.945 83.3592 29.945C84.1622 29.945 84.7872 29.763 85.2362 29.401C85.6832 29.039 85.9062 28.553 85.9062 27.947C85.9062 27.407 85.7222 26.952 85.3532 26.583C84.9862 26.214 84.3732 25.871 83.5172 25.554C81.1872 24.685 80.0232 23.412 80.0232 21.738C80.0232 20.644 80.4312 19.747 81.2482 19.049C82.0622 18.35 83.1482 18.001 84.5062 18.001C85.7172 18.001 86.7232 18.212 87.5262 18.633L86.9932 20.371C86.2432 19.963 85.3952 19.759 84.4462 19.759C83.6962 19.759 83.1102 19.944 82.6902 20.312C82.3352 20.641 82.1572 21.042 82.1572 21.517C82.1572 22.043 82.3602 22.478 82.7682 22.82C83.1232 23.136 83.7682 23.478 84.7042 23.847C85.8492 24.308 86.6902 24.847 87.2312 25.465C87.7702 26.081 88.0392 26.852 88.0392 27.772Z" fill="white"/>
<path d="M95.0881 23.508H92.7381V28.167C92.7381 29.352 93.1521 29.944 93.9821 29.944C94.3631 29.944 94.6791 29.911 94.9291 29.845L94.9881 31.464C94.5681 31.621 94.0151 31.7 93.3301 31.7C92.4881 31.7 91.8301 31.443 91.3551 30.93C90.8821 30.416 90.6441 29.554 90.6441 28.343V23.506H89.2441V21.906H90.6441V20.149L92.7381 19.517V21.906H95.0881V23.508Z" fill="white"/>
<path d="M105.691 26.627C105.691 28.102 105.269 29.313 104.427 30.26C103.544 31.235 102.372 31.721 100.911 31.721C99.503 31.721 98.382 31.254 97.546 30.32C96.71 29.386 96.292 28.207 96.292 26.786C96.292 25.299 96.722 24.081 97.585 23.134C98.446 22.186 99.608 21.712 101.069 21.712C102.477 21.712 103.61 22.179 104.465 23.114C105.283 24.021 105.691 25.192 105.691 26.627ZM103.479 26.696C103.479 25.811 103.29 25.052 102.907 24.419C102.46 23.653 101.821 23.271 100.993 23.271C100.136 23.271 99.485 23.654 99.038 24.419C98.655 25.053 98.466 25.824 98.466 26.736C98.466 27.621 98.655 28.38 99.038 29.012C99.499 29.778 100.143 30.16 100.974 30.16C101.788 30.16 102.427 29.77 102.888 28.992C103.281 28.347 103.479 27.58 103.479 26.696Z" fill="white"/>
<path d="M112.621 23.7829C112.41 23.7439 112.185 23.7239 111.949 23.7239C111.199 23.7239 110.619 24.0069 110.211 24.5739C109.856 25.0739 109.678 25.7059 109.678 26.4689V31.5039H107.547L107.567 24.9299C107.567 23.8239 107.54 22.8169 107.487 21.9089H109.344L109.422 23.7449H109.481C109.706 23.1139 110.061 22.6059 110.547 22.2249C111.022 21.8819 111.535 21.7109 112.088 21.7109C112.285 21.7109 112.463 21.7249 112.621 21.7499V23.7829Z" fill="white"/>
<path d="M122.156 26.252C122.156 26.634 122.131 26.956 122.078 27.219H115.682C115.707 28.167 116.016 28.892 116.61 29.392C117.149 29.839 117.846 30.063 118.702 30.063C119.649 30.063 120.513 29.912 121.29 29.609L121.624 31.089C120.716 31.485 119.644 31.682 118.407 31.682C116.919 31.682 115.751 31.244 114.901 30.369C114.053 29.494 113.628 28.319 113.628 26.845C113.628 25.398 114.023 24.193 114.814 23.232C115.642 22.206 116.761 21.693 118.169 21.693C119.552 21.693 120.599 22.206 121.31 23.232C121.873 24.047 122.156 25.055 122.156 26.252ZM120.123 25.699C120.137 25.067 119.998 24.521 119.709 24.06C119.34 23.467 118.773 23.171 118.01 23.171C117.313 23.171 116.746 23.46 116.313 24.04C115.958 24.501 115.747 25.054 115.682 25.698H120.123V25.699Z" fill="white"/>
<path d="M49.0498 10.0091C49.0498 11.1861 48.6968 12.0721 47.9918 12.6671C47.3388 13.2161 46.4108 13.4911 45.2088 13.4911C44.6128 13.4911 44.1028 13.4651 43.6758 13.4131V6.98207C44.2328 6.89207 44.8328 6.84607 45.4808 6.84607C46.6258 6.84607 47.4888 7.09507 48.0708 7.59307C48.7228 8.15607 49.0498 8.96107 49.0498 10.0091ZM47.9448 10.0381C47.9448 9.27507 47.7428 8.69007 47.3388 8.28207C46.9348 7.87507 46.3448 7.67107 45.5678 7.67107C45.2378 7.67107 44.9568 7.69307 44.7238 7.73907V12.6281C44.8528 12.6481 45.0888 12.6571 45.4318 12.6571C46.2338 12.6571 46.8528 12.4341 47.2888 11.9881C47.7248 11.5421 47.9448 10.8921 47.9448 10.0381Z" fill="white"/>
<path d="M54.909 11.037C54.909 11.762 54.702 12.356 54.288 12.822C53.854 13.301 53.279 13.54 52.561 13.54C51.869 13.54 51.318 13.311 50.907 12.851C50.497 12.392 50.292 11.813 50.292 11.115C50.292 10.385 50.503 9.78605 50.927 9.32105C51.351 8.85605 51.921 8.62305 52.639 8.62305C53.331 8.62305 53.887 8.85205 54.308 9.31105C54.708 9.75705 54.909 10.333 54.909 11.037ZM53.822 11.071C53.822 10.636 53.728 10.263 53.541 9.95205C53.321 9.57605 53.008 9.38805 52.601 9.38805C52.18 9.38805 51.86 9.57605 51.64 9.95205C51.452 10.263 51.359 10.642 51.359 11.09C51.359 11.525 51.453 11.898 51.64 12.209C51.867 12.585 52.183 12.773 52.591 12.773C52.991 12.773 53.305 12.582 53.531 12.199C53.725 11.882 53.822 11.506 53.822 11.071Z" fill="white"/>
<path d="M62.7646 8.71899L61.2896 13.433H60.3296L59.7186 11.386C59.5636 10.875 59.4376 10.367 59.3396 9.86299H59.3206C59.2296 10.381 59.1036 10.888 58.9416 11.386L58.2926 13.433H57.3216L55.9346 8.71899H57.0116L57.5446 10.96C57.6736 11.49 57.7796 11.995 57.8646 12.473H57.8836C57.9616 12.079 58.0906 11.577 58.2726 10.97L58.9416 8.71999H59.7956L60.4366 10.922C60.5916 11.459 60.7176 11.976 60.8146 12.474H60.8436C60.9146 11.989 61.0216 11.472 61.1636 10.922L61.7356 8.71999H62.7646V8.71899Z" fill="white"/>
<path d="M68.1979 13.433H67.1499V10.733C67.1499 9.901 66.8339 9.48499 66.1999 9.48499C65.8889 9.48499 65.6379 9.599 65.4429 9.828C65.2499 10.057 65.1519 10.327 65.1519 10.636V13.432H64.1039V10.066C64.1039 9.652 64.0909 9.203 64.0659 8.717H64.9869L65.0359 9.454H65.0649C65.1869 9.225 65.3689 9.036 65.6079 8.885C65.8919 8.709 66.2099 8.62 66.5579 8.62C66.9979 8.62 67.3639 8.762 67.6549 9.047C68.0169 9.396 68.1979 9.917 68.1979 10.609V13.433Z" fill="white"/>
<path d="M71.088 13.433H70.041V6.55603H71.088V13.433Z" fill="white"/>
<path d="M77.2576 11.037C77.2576 11.762 77.0506 12.356 76.6366 12.822C76.2026 13.301 75.6266 13.54 74.9096 13.54C74.2166 13.54 73.6656 13.311 73.2556 12.851C72.8456 12.392 72.6406 11.813 72.6406 11.115C72.6406 10.385 72.8516 9.78605 73.2756 9.32105C73.6996 8.85605 74.2696 8.62305 74.9866 8.62305C75.6796 8.62305 76.2346 8.85205 76.6566 9.31105C77.0566 9.75705 77.2576 10.333 77.2576 11.037ZM76.1696 11.071C76.1696 10.636 76.0756 10.263 75.8886 9.95205C75.6696 9.57605 75.3556 9.38805 74.9496 9.38805C74.5276 9.38805 74.2076 9.57605 73.9886 9.95205C73.8006 10.263 73.7076 10.642 73.7076 11.09C73.7076 11.525 73.8016 11.898 73.9886 12.209C74.2156 12.585 74.5316 12.773 74.9396 12.773C75.3396 12.773 75.6526 12.582 75.8786 12.199C76.0736 11.882 76.1696 11.506 76.1696 11.071Z" fill="white"/>
<path d="M82.33 13.433H81.389L81.311 12.89H81.282C80.96 13.323 80.501 13.54 79.905 13.54C79.46 13.54 79.1 13.397 78.829 13.113C78.583 12.855 78.46 12.534 78.46 12.153C78.46 11.577 78.7 11.138 79.183 10.834C79.665 10.53 80.343 10.381 81.216 10.388V10.3C81.216 9.67905 80.89 9.36905 80.237 9.36905C79.772 9.36905 79.362 9.48605 79.008 9.71805L78.795 9.03005C79.233 8.75905 79.774 8.62305 80.412 8.62305C81.644 8.62305 82.262 9.27305 82.262 10.573V12.309C82.262 12.78 82.285 13.155 82.33 13.433ZM81.242 11.813V11.086C80.086 11.066 79.508 11.383 79.508 12.036C79.508 12.282 79.574 12.466 79.709 12.589C79.844 12.712 80.016 12.773 80.221 12.773C80.451 12.773 80.666 12.7 80.862 12.555C81.059 12.409 81.18 12.224 81.225 11.997C81.236 11.946 81.242 11.884 81.242 11.813Z" fill="white"/>
<path d="M88.2847 13.433H87.3547L87.3057 12.676H87.2767C86.9797 13.252 86.4737 13.54 85.7627 13.54C85.1947 13.54 84.7217 13.317 84.3467 12.871C83.9717 12.425 83.7847 11.846 83.7847 11.135C83.7847 10.372 83.9877 9.75403 84.3957 9.28203C84.7907 8.84203 85.2747 8.62203 85.8507 8.62203C86.4837 8.62203 86.9267 8.83503 87.1787 9.26203H87.1987V6.55603H88.2477V12.163C88.2477 12.622 88.2597 13.045 88.2847 13.433ZM87.1987 11.445V10.659C87.1987 10.523 87.1887 10.413 87.1697 10.329C87.1107 10.077 86.9837 9.86503 86.7907 9.69403C86.5957 9.52303 86.3607 9.43703 86.0897 9.43703C85.6987 9.43703 85.3927 9.59203 85.1677 9.90303C84.9447 10.214 84.8317 10.611 84.8317 11.096C84.8317 11.562 84.9387 11.94 85.1537 12.231C85.3807 12.541 85.6867 12.696 86.0697 12.696C86.4137 12.696 86.6887 12.567 86.8977 12.308C87.0997 12.069 87.1987 11.781 87.1987 11.445Z" fill="white"/>
<path d="M97.2479 11.037C97.2479 11.762 97.0409 12.356 96.6269 12.822C96.1929 13.301 95.6189 13.54 94.8999 13.54C94.2089 13.54 93.6579 13.311 93.2459 12.851C92.8359 12.392 92.6309 11.813 92.6309 11.115C92.6309 10.385 92.8419 9.78605 93.2659 9.32105C93.6899 8.85605 94.2599 8.62305 94.9789 8.62305C95.6699 8.62305 96.2269 8.85205 96.6469 9.31105C97.0469 9.75705 97.2479 10.333 97.2479 11.037ZM96.1619 11.071C96.1619 10.636 96.0679 10.263 95.8809 9.95205C95.6599 9.57605 95.3479 9.38805 94.9399 9.38805C94.5199 9.38805 94.1999 9.57605 93.9789 9.95205C93.7909 10.263 93.6979 10.642 93.6979 11.09C93.6979 11.525 93.7919 11.898 93.9789 12.209C94.2059 12.585 94.5219 12.773 94.9299 12.773C95.3299 12.773 95.6449 12.582 95.8709 12.199C96.0639 11.882 96.1619 11.506 96.1619 11.071Z" fill="white"/>
<path d="M102.883 13.433H101.836V10.733C101.836 9.901 101.52 9.48499 100.885 9.48499C100.574 9.48499 100.323 9.599 100.129 9.828C99.935 10.057 99.838 10.327 99.838 10.636V13.432H98.789V10.066C98.789 9.652 98.777 9.203 98.752 8.717H99.672L99.721 9.454H99.75C99.873 9.225 100.055 9.036 100.293 8.885C100.578 8.709 100.895 8.62 101.244 8.62C101.683 8.62 102.049 8.762 102.34 9.047C102.703 9.396 102.883 9.917 102.883 10.609V13.433Z" fill="white"/>
<path d="M109.936 9.50404H108.782V11.794C108.782 12.376 108.987 12.667 109.393 12.667C109.581 12.667 109.737 12.651 109.86 12.618L109.887 13.413C109.68 13.491 109.408 13.53 109.073 13.53C108.659 13.53 108.337 13.404 108.104 13.152C107.87 12.9 107.754 12.476 107.754 11.881V9.50404H107.065V8.71904H107.754V7.85504L108.781 7.54504V8.71804H109.935V9.50404H109.936Z" fill="white"/>
<path d="M115.484 13.433H114.435V10.753C114.435 9.90803 114.119 9.48503 113.486 9.48503C113 9.48503 112.668 9.73003 112.486 10.22C112.455 10.323 112.437 10.449 112.437 10.597V13.432H111.39V6.55603H112.437V9.39703H112.457C112.787 8.88003 113.26 8.62203 113.873 8.62203C114.307 8.62203 114.666 8.76403 114.951 9.04903C115.306 9.40403 115.484 9.93203 115.484 10.63V13.433Z" fill="white"/>
<path d="M121.207 10.853C121.207 11.041 121.193 11.199 121.168 11.328H118.025C118.039 11.794 118.189 12.149 118.48 12.395C118.746 12.615 119.089 12.725 119.509 12.725C119.974 12.725 120.398 12.651 120.78 12.502L120.944 13.23C120.497 13.424 119.971 13.521 119.362 13.521C118.632 13.521 118.057 13.306 117.641 12.876C117.223 12.446 117.016 11.869 117.016 11.145C117.016 10.434 117.209 9.84201 117.598 9.37001C118.004 8.86601 118.553 8.61401 119.246 8.61401C119.924 8.61401 120.439 8.86601 120.787 9.37001C121.068 9.77001 121.207 10.265 121.207 10.853ZM120.207 10.582C120.215 10.271 120.146 10.003 120.004 9.77701C119.822 9.48601 119.545 9.34001 119.17 9.34001C118.828 9.34001 118.549 9.48201 118.336 9.76701C118.162 9.99401 118.059 10.265 118.025 10.582H120.207Z" fill="white"/>
</svg>
