<svg width="492" height="492" viewBox="0 0 492 492" fill="none" xmlns="http://www.w3.org/2000/svg">
<path d="M198.608 246.104L382.664 62.04C387.732 56.984 390.52 50.224 390.52 43.016C390.52 35.804 387.732 29.048 382.664 23.984L366.536 7.864C361.476 2.792 354.712 0 347.504 0C340.296 0 333.54 2.792 328.476 7.864L109.328 227.008C104.244 232.088 101.46 238.876 101.48 246.092C101.46 253.34 104.24 260.12 109.328 265.204L328.272 484.136C333.336 489.208 340.092 492 347.304 492C354.512 492 361.268 489.208 366.336 484.136L382.46 468.016C392.952 457.524 392.952 440.444 382.46 429.956L198.608 246.104Z" fill="#1C1A1A"/>
</svg>
