<svg width="512" height="512" viewBox="0 0 512 512" fill="none" xmlns="http://www.w3.org/2000/svg">
<path d="M497 181H437C428.716 181 422 187.716 422 196V211H268.42C265.66 203.219 260.825 196.412 254.572 191.26C262.064 160.427 262.006 128.177 254.283 97.282L252.712 91H256C264.284 91 271 84.284 271 76V15C271 6.716 264.284 0 256 0H196C187.716 0 181 6.716 181 15V76C181 84.284 187.716 91 196 91H221.788L225.178 104.559C231.457 129.676 231.751 155.849 226.158 181.004C226.105 181.004 226.053 181 225.999 181C201.186 181 180.999 201.187 180.999 226C180.999 226.047 181.002 226.093 181.003 226.141C155.667 231.72 128.627 231.445 103.559 225.179L90 221.788V196C90 187.716 83.284 181 75 181H15C6.716 181 0 187.716 0 196V256C0 264.284 6.716 271 15 271H75C83.284 271 90 264.284 90 256V252.712L96.283 254.283C111.846 258.174 128.053 260.11 144.276 260.11C160.123 260.11 175.983 258.256 191.263 254.574C196.415 260.825 203.221 265.66 211.001 268.42V422H196.001C187.717 422 181.001 428.716 181.001 437V497C181.001 505.284 187.717 512 196.001 512H256.001C264.285 512 271.001 505.284 271.001 497V437C271.001 428.716 264.285 422 256.001 422H241.001V268.42C253.765 263.893 263.894 253.764 268.421 241H422V256C422 264.284 428.716 271 437 271H497C505.284 271 512 264.284 512 256V196C512 187.716 505.284 181 497 181ZM60 241H30V211H60V241ZM241 482H211V452H241V482ZM226 241C217.729 241 211 234.271 211 226C211 217.729 217.729 211 226 211C234.271 211 241 217.729 241 226C241 234.271 234.271 241 226 241ZM241 61H211V30H241V61ZM482 241H452V211H482V241Z" fill="#1C1A1A"/>
<path d="M471.908 367.36L323.416 303.721C317.781 301.305 311.239 302.564 306.901 306.902C302.564 311.239 301.304 317.779 303.72 323.417L367.359 471.909C369.73 477.44 375.165 481 381.143 481C381.351 481 381.561 480.996 381.77 480.987C387.992 480.728 393.407 476.652 395.376 470.744L414.218 414.219L470.743 395.377C476.651 393.408 480.727 387.993 480.986 381.771C481.245 375.548 477.632 369.813 471.908 367.36ZM397.617 388.13C393.138 389.623 389.623 393.137 388.131 397.616L379.394 423.827L346.068 346.066L423.828 379.393L397.617 388.13Z" fill="#1C1A1A"/>
</svg>
