<svg width="512" height="512" viewBox="0 0 512 512" fill="none" xmlns="http://www.w3.org/2000/svg">
<path d="M254.414 267.276L178.92 223.689C175.008 221.431 170.186 221.437 166.278 223.707L91.2732 267.294C87.5498 269.455 85 273.58 85 278.197V365.37C85 369.862 87.3901 374.015 91.2741 376.273L164.928 419.074C168.852 421.989 174.444 422.461 178.92 419.877L254.414 376.29C258.315 374.037 260.635 369.874 260.635 365.37V278.197C260.635 273.716 258.3 269.518 254.414 267.276ZM159.822 386.937L110.221 358.113V300.11L159.822 328.934V386.937ZM172.636 307.21L122.709 278.197L172.636 249.183L222.889 278.197L172.636 307.21ZM235.499 358.089L185.042 387.22V329.169L235.499 300.039V358.089Z" fill="#1C1A1A"/>
<path d="M85.459 113.184C93.2417 113.184 99.5508 106.874 99.5508 99.0918C99.5508 91.3091 93.2417 85 85.459 85C77.6763 85 71.3672 91.3091 71.3672 99.0918C71.3672 106.874 77.6763 113.184 85.459 113.184Z" fill="#1C1A1A"/>
<path d="M141.826 113.184C149.609 113.184 155.918 106.874 155.918 99.0918C155.918 91.3091 149.609 85 141.826 85C134.043 85 127.734 91.3091 127.734 99.0918C127.734 106.874 134.043 113.184 141.826 113.184Z" fill="#1C1A1A"/>
<path d="M198.193 113.184C205.976 113.184 212.285 106.874 212.285 99.0918C212.285 91.3091 205.976 85 198.193 85C190.411 85 184.102 91.3091 184.102 99.0918C184.102 106.874 190.411 113.184 198.193 113.184Z" fill="#1C1A1A"/>
<path d="M453.725 32H57.2754C33.9647 32 15 50.2945 15 72.7812C15 81.8573 15 444.017 15 455.219C15 477.706 33.9647 496 57.2754 496H453.725C477.035 496 496 477.706 496 455.219C496 444.282 496 82.6367 496 72.7812C496 50.2945 477.035 32 453.725 32ZM467.816 455.219C467.816 462.714 461.495 468.812 453.725 468.812H57.2754C49.5052 468.812 43.1836 462.714 43.1836 455.219V167.938H467.816V455.219ZM467.816 140.75H43.1836V72.7812C43.1836 65.2857 49.5052 59.1875 57.2754 59.1875H453.725C461.495 59.1875 467.816 65.2857 467.816 72.7812V140.75Z" fill="#1C1A1A"/>
<path d="M416.08 228.424H367.603C361.02 228.424 355.683 233.761 355.683 240.344C355.683 246.928 361.02 252.265 367.603 252.265H416.08C422.663 252.265 428 246.928 428 240.344C428 233.761 422.663 228.424 416.08 228.424Z" fill="#1C1A1A"/>
<path d="M416.079 276.106H319.92C313.337 276.106 308 281.443 308 288.026C308 294.61 313.337 299.947 319.92 299.947H416.079C422.662 299.947 428 294.61 428 288.026C428 281.443 422.662 276.106 416.079 276.106Z" fill="#1C1A1A"/>
<path d="M416.079 323.788H319.92C313.337 323.788 308 329.125 308 335.708C308 342.291 313.337 347.629 319.92 347.629H416.079C422.662 347.629 428 342.291 428 335.708C428 329.125 422.662 323.788 416.079 323.788Z" fill="#1C1A1A"/>
<path d="M416.079 371.469H319.92C313.337 371.469 308 376.806 308 383.39C308 389.973 313.337 395.31 319.92 395.31H416.079C422.662 395.31 428 389.973 428 383.39C428 376.806 422.662 371.469 416.079 371.469Z" fill="#1C1A1A"/>
</svg>
