<svg width="512" height="512" viewBox="0 0 512 512" fill="none" xmlns="http://www.w3.org/2000/svg">
<path d="M196 241C204.284 241 211 234.284 211 226C211 217.716 204.284 211 196 211C187.716 211 181 217.716 181 226C181 234.284 187.716 241 196 241Z" fill="#1C1A1A"/>
<path d="M316 241C324.284 241 331 234.284 331 226C331 217.716 324.284 211 316 211C307.716 211 301 217.716 301 226C301 234.284 307.716 241 316 241Z" fill="#1C1A1A"/>
<path d="M452 331H448.42C450.085 326.305 451 321.258 451 316C451 296.269 438.229 279.475 420.524 273.419C414.451 193.255 350.841 128.919 271 121.689V87.42C288.459 81.228 301 64.555 301 45C301 20.187 280.813 0 256 0C231.187 0 211 20.187 211 45C211 64.555 223.541 81.228 241 87.42V121.689C161.159 128.919 97.549 193.255 91.476 273.419C73.771 279.475 61 296.269 61 316C61 321.258 61.915 326.305 63.58 331H60C26.916 331 0 357.916 0 391C0 413.159 12.084 432.537 30 442.928V497C30 505.284 36.716 512 45 512C59.117 512 448.867 512 467 512C475.284 512 482 505.284 482 497V442.928C499.916 432.537 512 413.159 512 391C512 357.916 485.084 331 452 331ZM256 30C264.271 30 271 36.729 271 45C271 53.271 264.271 60 256 60C247.729 60 241 53.271 241 45C241 36.729 247.729 30 256 30ZM256 151C325.369 151 382.676 203.595 390.162 271H121.838C129.324 203.595 186.631 151 256 151ZM91 482H60V451H91V482ZM91 421H60C43.458 421 30 407.542 30 391C30 374.458 43.458 361 60 361H91C91 378.847 91 402.78 91 421ZM331 482H181V451H331V482ZM391 482H361V436C361 427.716 354.284 421 346 421H166C157.716 421 151 427.716 151 436V482H121C121 457.671 121 401.854 121 361H391C391 401.691 391 457.483 391 482ZM406 331H106C97.729 331 91 324.271 91 316C91 307.729 97.729 301 106 301H406C414.271 301 421 307.729 421 316C421 324.271 414.271 331 406 331ZM452 482H421V451H452V482ZM452 421H421C421 402.772 421 378.846 421 361H452C468.542 361 482 374.458 482 391C482 407.542 468.542 421 452 421Z" fill="#1C1A1A"/>
</svg>
