<svg width="512" height="512" viewBox="0 0 512 512" fill="none" xmlns="http://www.w3.org/2000/svg">
<path d="M467 0H45C20.187 0 0 20.187 0 45V346C0 370.813 20.187 391 45 391H181V423.509C146.808 430.477 121 460.78 121 497C121 505.284 127.716 512 136 512H376C384.284 512 391 505.284 391 497C391 460.781 365.192 430.478 331 423.509V391H467C491.813 391 512 370.813 512 346V45C512 20.187 491.813 0 467 0ZM358.43 482H153.57C159.76 464.539 176.443 452 196 452H316C335.557 452 352.239 464.539 358.43 482ZM211 422V391H301V422H211ZM482 346C482 354.271 475.271 361 467 361C443.995 361 67.371 361 45 361C36.729 361 30 354.271 30 346V331H482V346ZM482 301H30V45C30 36.729 36.729 30 45 30H467C475.271 30 482 36.729 482 45V301Z" fill="#1C1A1A"/>
<path d="M166 91H105C96.716 91 90 97.716 90 106C90 114.284 96.716 121 105 121H166C174.284 121 181 114.284 181 106C181 97.716 174.284 91 166 91Z" fill="#1C1A1A"/>
<path d="M166 151H105C96.716 151 90 157.716 90 166C90 174.284 96.716 181 105 181H166C174.284 181 181 174.284 181 166C181 157.716 174.284 151 166 151Z" fill="#1C1A1A"/>
<path d="M166 211H105C96.716 211 90 217.716 90 226C90 234.284 96.716 241 105 241H166C174.284 241 181 234.284 181 226C181 217.716 174.284 211 166 211Z" fill="#1C1A1A"/>
<path d="M413.615 107.104C411.842 106.067 426.969 115.201 339.024 61.8788C334.257 58.9898 328.284 58.9798 323.507 61.8568L248.44 107.072C243.865 109.744 240.999 114.707 240.999 120.03V210.677C241 215.928 243.747 220.798 248.242 223.514L323.242 268.838C328.071 271.759 334.104 271.653 338.758 268.838L413.758 223.514C418.253 220.798 421 215.928 421 210.676V120.029C421 111.063 413.713 107.204 413.615 107.104ZM316 229.409L271 202.215V146.62L316 173.814V229.409ZM331 147.827L285.037 120.051L331.222 92.2318L377.034 120.008L331 147.827ZM391 202.215L346 229.409V173.814L391 146.62V202.215Z" fill="#1C1A1A"/>
</svg>
