<svg width="520" height="512" viewBox="0 0 520 512" fill="none" xmlns="http://www.w3.org/2000/svg">
<g filter="url(#filter0_d)">
<path d="M471.001 211C469.092 211 467.215 211.133 465.367 211.365L412.432 107.147C420.206 99.056 425 88.081 425 76C425 51.187 404.813 31 380 31C360.445 31 343.772 43.542 337.58 61H182.42C176.228 43.542 159.555 31 140 31C115.187 31 95 51.187 95 76C95 88.081 99.794 99.056 107.568 107.147L54.634 211.365C52.786 211.133 50.909 211 49 211C24.187 211 4 231.187 4 256C4 280.813 24.187 301 49 301C50.909 301 52.786 300.867 54.634 300.635L107.569 404.853C99.794 412.944 95 423.919 95 436C95 460.813 115.187 481 140 481C159.555 481 176.228 468.458 182.42 451H337.58C343.772 468.458 360.445 481 380 481C404.813 481 425 460.813 425 436C425 423.919 420.206 412.944 412.432 404.853L465.367 300.635C467.214 300.867 469.091 301 471.001 301C495.814 301 516.001 280.813 516.001 256C516.001 231.187 495.814 211 471.001 211ZM438.553 224.823L364.835 199.705C364.935 198.482 365 197.249 365 196C365 182.452 358.973 170.292 349.469 162.035L379.662 120.991C379.775 120.992 379.886 121 379.999 121C381.908 121 383.785 120.867 385.633 120.635L438.553 224.823ZM306.543 238.943C310.794 240.279 315.314 241 320 241C332.724 241 344.222 235.684 352.414 227.166L425.207 251.969L267.51 291.178C267.488 291.144 267.467 291.109 267.444 291.075L306.543 238.943ZM305 196C305 187.729 311.729 181 320 181C328.271 181 335 187.729 335 196C335 204.271 328.271 211 320 211C311.729 211 305 204.271 305 196ZM380 61C388.271 61 395 67.729 395 76C395 84.271 388.271 91 380 91C371.729 91 365 84.271 365 76C365 67.729 371.729 61 380 61ZM337.58 91C340.205 98.401 344.715 104.913 350.531 109.965L320.338 151.009C320.225 151.008 320.113 151 320 151C309.894 151 300.556 154.35 293.036 159.996L189.542 91H337.58ZM276.378 184.946C275.481 188.484 275 192.188 275 196C275 205.213 277.787 213.784 282.556 220.925L243.457 273.057C239.206 271.722 234.686 271 230 271C229.716 271 229.436 271.016 229.154 271.021L170.374 114.276L276.378 184.946ZM245 316C245 324.271 238.271 331 230 331C221.729 331 215 324.271 215 316C215 307.729 221.729 301 230 301C238.271 301 245 307.729 245 316ZM140 61C148.271 61 155 67.729 155 76C155 84.271 148.271 91 140 91C131.729 91 125 84.271 125 76C125 67.729 131.729 61 140 61ZM134.367 120.635C136.214 120.867 138.091 121 140 121C140.284 121 140.564 120.984 140.846 120.979L201.068 281.569C198.649 283.606 196.45 285.893 194.505 288.389L93.979 255.15C93.759 243.406 89.023 232.754 81.432 224.853L134.367 120.635ZM49 271C40.729 271 34 264.271 34 256C34 247.729 40.729 241 49 241C57.271 241 64 247.729 64 256C64 264.271 57.271 271 49 271ZM140 451C131.729 451 125 444.271 125 436C125 427.729 131.729 421 140 421C148.271 421 155 427.729 155 436C155 444.271 148.271 451 140 451ZM153.458 393.057C149.206 391.722 144.686 391 140 391C138.091 391 136.214 391.133 134.366 391.365L81.432 287.147C82.513 286.022 83.535 284.842 84.495 283.611L185.022 316.85C185.188 325.739 187.935 334.005 192.557 340.925L153.458 393.057ZM182.42 421C181.168 417.47 179.491 414.14 177.444 411.075L216.543 358.943C220.794 360.279 225.314 361 230 361C238.71 361 246.845 358.505 253.742 354.203L337.239 421H182.42ZM380 451C371.729 451 365 444.271 365 436C365 427.729 371.729 421 380 421C388.271 421 395 427.729 395 436C395 444.271 388.271 451 380 451ZM385.634 391.365C383.786 391.133 381.909 391 380 391C371.29 391 363.155 393.495 356.258 397.797L272.493 330.785C273.659 327.443 274.446 323.926 274.792 320.28L433.491 280.822C434.992 283.083 436.695 285.197 438.569 287.147L385.634 391.365ZM471 271C462.729 271 456 264.271 456 256C456 247.729 462.729 241 471 241C479.271 241 486 247.729 486 256C486 264.271 479.271 271 471 271Z" fill="#1C1A1A"/>
</g>
<defs>
<filter id="filter0_d" x="0" y="31" width="520.001" height="458" filterUnits="userSpaceOnUse" color-interpolation-filters="sRGB">
<feFlood flood-opacity="0" result="BackgroundImageFix"/>
<feColorMatrix in="SourceAlpha" type="matrix" values="0 0 0 0 0 0 0 0 0 0 0 0 0 0 0 0 0 0 127 0"/>
<feOffset dy="4"/>
<feGaussianBlur stdDeviation="2"/>
<feColorMatrix type="matrix" values="0 0 0 0 0 0 0 0 0 0 0 0 0 0 0 0 0 0 0.25 0"/>
<feBlend mode="normal" in2="BackgroundImageFix" result="effect1_dropShadow"/>
<feBlend mode="normal" in="SourceGraphic" in2="effect1_dropShadow" result="shape"/>
</filter>
</defs>
</svg>
