<svg width="512" height="513" viewBox="0 0 512 513" fill="none" xmlns="http://www.w3.org/2000/svg">
<g clip-path="url(#clip0)">
<path d="M512.001 255.969C511.99 250.776 509.293 245.958 504.872 243.232L452.838 211.156L504.927 178.735C509.32 176.001 511.993 171.196 512.001 166.023C512.009 160.849 509.35 156.036 504.965 153.289L263.965 2.289C259.094 -0.763 252.907 -0.763 248.036 2.289L7.03601 153.289C2.65201 156.036 -0.00698621 160.849 1.37868e-05 166.023C0.00801379 171.197 2.68101 176.002 7.07401 178.735L58.806 210.933L7.05101 243.282C2.66101 246.026 -0.00398621 250.839 0.00101379 256.016C0.00601379 261.193 2.68001 266.001 7.07501 268.737L58.807 300.935L7.05101 333.282C2.66801 336.022 0.00401379 340.825 0.00101379 345.994C-0.00198621 351.163 2.65701 355.969 7.03701 358.713L248.037 509.713C250.473 511.239 253.237 512.002 256.001 512.002C258.765 512.002 261.53 511.239 263.965 509.713L504.965 358.713C509.359 355.96 512.02 351.132 512.001 345.947C511.982 340.762 509.286 335.954 504.872 333.233L452.838 301.157L504.927 268.736C509.336 265.992 512.012 261.162 512.001 255.969ZM43.32 165.96L256.001 32.703L468.682 165.96C466.638 167.232 262.096 294.54 256.001 298.334L43.32 165.96ZM468.584 346.106L256.001 479.301L43.278 346.018L87.167 318.587L248.075 418.737C250.501 420.247 253.251 421.002 256.001 421.002C258.751 421.002 261.501 420.247 263.927 418.737L424.391 318.863L468.584 346.106ZM256.001 388.334L43.345 255.976L87.167 228.587L248.075 328.737C250.501 330.247 253.251 331.002 256.001 331.002C258.751 331.002 261.501 330.247 263.927 328.737L424.391 228.863L468.516 256.063C467.297 256.822 261.631 384.829 256.001 388.334Z" fill="#1C1A1A"/>
</g>
<defs>
<clipPath id="clip0">
<rect width="512" height="513" fill="white"/>
</clipPath>
</defs>
</svg>
