<svg width="163" height="48" viewBox="0 0 163 48" fill="none" xmlns="http://www.w3.org/2000/svg">
<path d="M85.6924 15.8783C84.6062 15.8783 83.6904 15.4982 82.9662 14.7501C82.248 14.0229 81.847 13.0204 81.865 11.997C81.865 10.9047 82.2361 9.98 82.9662 9.24683C83.6874 8.4987 84.6032 8.11865 85.6894 8.11865C86.7638 8.11865 87.6795 8.4987 88.4156 9.24683C89.1458 10.0039 89.5169 10.9286 89.5169 11.997C89.5049 13.0922 89.1338 14.0169 88.4156 14.7471C87.6944 15.5012 86.7787 15.8783 85.6924 15.8783ZM53.3702 15.8783C52.3079 15.8783 51.3862 15.5042 50.6321 14.765C49.884 14.0289 49.5039 13.0982 49.5039 11.9999C49.5039 10.9017 49.884 9.97102 50.6321 9.23486C51.3712 8.49571 52.2929 8.12165 53.3702 8.12165C53.8969 8.12165 54.4086 8.22638 54.8994 8.43885C55.3812 8.64534 55.7732 8.92663 56.0635 9.27077L56.1353 9.35756L55.3244 10.1536L55.2406 10.0548C54.7827 9.51017 54.1692 9.24384 53.3583 9.24384C52.6341 9.24384 52.0027 9.5012 51.482 10.0099C50.9583 10.5216 50.6919 11.192 50.6919 12.0029C50.6919 12.8139 50.9583 13.4842 51.482 13.996C52.0027 14.5047 52.6341 14.762 53.3583 14.762C54.1303 14.762 54.7797 14.5047 55.2855 13.996C55.5847 13.6967 55.7702 13.2778 55.8361 12.7481H53.2356V11.6289H56.9523L56.9672 11.7306C56.9942 11.9192 57.0211 12.1137 57.0211 12.2932C57.0211 13.3256 56.7099 14.1605 56.0934 14.777C55.3932 15.5072 54.4775 15.8783 53.3702 15.8783ZM96.3458 15.7196H95.1997L91.6894 10.1027L91.7194 11.1142V15.7167H90.5732V8.28025H91.881L91.9169 8.33711L95.2176 13.6279L95.1877 12.6194V8.28025H96.3458V15.7196ZM77.08 15.7196H75.9189V9.39945H73.9049V8.28025H79.0909V9.39945H77.077V15.7196H77.08ZM72.9593 15.7196H71.8012V8.28025H72.9593V15.7196ZM66.4505 15.7196H65.2924V9.39945H63.2785V8.28025H68.4645V9.39945H66.4505V15.7196ZM62.5453 15.7077H58.1044V8.28025H62.5453V9.39945H59.2655V11.4403H62.2251V12.5476H59.2655V14.5885H62.5453V15.7077ZM83.8161 13.981C84.3338 14.4987 84.9623 14.7591 85.6924 14.7591C86.4436 14.7591 87.057 14.5047 87.5687 13.981C88.0775 13.4723 88.3348 12.8049 88.3348 11.9999C88.3348 11.195 88.0775 10.5246 87.5717 10.0189C87.054 9.5012 86.4226 9.24085 85.6954 9.24085C84.9443 9.24085 84.3308 9.49521 83.8221 10.0189C83.3134 10.5276 83.056 11.195 83.056 11.9999C83.056 12.8049 83.3104 13.4753 83.8161 13.981Z" fill="white"/>
<path fill-rule="evenodd" clip-rule="evenodd" d="M81.7582 26.1068C78.9303 26.1068 76.638 28.2524 76.638 31.212C76.638 34.1447 78.9452 36.3173 81.7582 36.3173C84.5862 36.3173 86.8784 34.1567 86.8784 31.212C86.8784 28.2524 84.5862 26.1068 81.7582 26.1068ZM81.7582 34.2943C80.2111 34.2943 78.8794 33.0135 78.8794 31.2001C78.8794 29.3597 80.2141 28.1058 81.7582 28.1058C83.3054 28.1058 84.637 29.3597 84.637 31.2001C84.64 33.0255 83.3054 34.2943 81.7582 34.2943ZM70.5871 26.1068C67.7592 26.1068 65.4669 28.2524 65.4669 31.212C65.4669 34.1447 67.7741 36.3173 70.5871 36.3173C73.4151 36.3173 75.7073 34.1567 75.7073 31.212C75.7073 28.2524 73.4121 26.1068 70.5871 26.1068ZM70.5871 34.2943C69.04 34.2943 67.7083 33.0135 67.7083 31.2001C67.7083 29.3597 69.043 28.1058 70.5871 28.1058C72.1343 28.1058 73.4659 29.3597 73.4659 31.2001C73.4659 33.0255 72.1343 34.2943 70.5871 34.2943ZM57.2943 27.6659V29.8265H62.4804C62.3218 31.0385 61.9208 31.9332 61.3073 32.5467C60.5472 33.3068 59.3741 34.1327 57.3063 34.1327C54.1193 34.1327 51.6265 31.5592 51.6265 28.3721C51.6265 25.1851 54.1193 22.6115 57.3063 22.6115C59.027 22.6115 60.2809 23.2908 61.2115 24.1587L62.7437 22.6265C61.4509 21.3876 59.7302 20.439 57.3183 20.439C52.9462 20.439 49.2773 24.0001 49.2773 28.3602C49.2773 32.7322 52.9432 36.2814 57.3183 36.2814C59.6794 36.2814 61.4509 35.5093 62.8514 34.0549C64.2789 32.6275 64.7307 30.6135 64.7307 28.9886C64.7307 28.4829 64.6918 28.028 64.611 27.642H57.2913C57.2943 27.639 57.2943 27.6659 57.2943 27.6659ZM111.666 29.3477C111.238 28.2016 109.945 26.0948 107.293 26.0948C104.666 26.0948 102.481 28.1627 102.481 31.2001C102.481 34.0669 104.642 36.3053 107.548 36.3053C109.882 36.3053 111.241 34.8779 111.8 34.04L110.068 32.8789C109.493 33.7317 108.694 34.2913 107.56 34.2913C106.414 34.2913 105.612 33.7706 105.079 32.7442L111.905 29.9163C111.905 29.9193 111.666 29.3477 111.666 29.3477ZM104.705 31.0534C104.651 29.0814 106.237 28.0789 107.371 28.0789C108.266 28.0789 109.011 28.5188 109.266 29.1592L104.705 31.0534ZM99.1598 36.0001H101.401V21.0016H99.1598V36.0001ZM95.4789 27.241H95.3981C94.8924 26.6395 93.9318 26.0948 92.7049 26.0948C90.1582 26.0948 87.8121 28.3362 87.8121 31.215C87.8121 34.0819 90.1463 36.2963 92.7049 36.2963C93.9168 36.2963 94.8924 35.7487 95.3981 35.1352H95.4789V35.8684C95.4789 37.8165 94.4375 38.8669 92.7587 38.8669C91.3852 38.8669 90.5323 37.8794 90.1852 37.0534L88.237 37.8674C88.7966 39.214 90.2899 40.8809 92.7557 40.8809C95.3832 40.8809 97.6096 39.3337 97.6096 35.5602V26.4001H95.4909V27.241C95.4939 27.241 95.4789 27.241 95.4789 27.241ZM92.9054 34.2943C91.3582 34.2943 90.0655 33.0016 90.0655 31.215C90.0655 29.4135 91.3582 28.1088 92.9054 28.1088C94.4375 28.1088 95.6256 29.4285 95.6256 31.215C95.6405 33.0016 94.4405 34.2943 92.9054 34.2943ZM122.16 21.0016H116.801V36.0001H119.042V30.3203H122.163C124.644 30.3203 127.083 28.5218 127.083 25.6669C127.083 22.812 124.653 21.0016 122.16 21.0016ZM122.226 28.2255H119.039V23.0784H122.226C123.905 23.0784 124.854 24.4639 124.854 25.6519C124.854 26.828 123.893 28.2255 122.226 28.2255ZM136.067 26.0799C134.439 26.0799 132.76 26.8011 132.066 28.3721L134.053 29.1981C134.481 28.3721 135.265 28.0908 136.093 28.0908C137.255 28.0908 138.428 28.7851 138.455 30.024V30.1826C138.054 29.9552 137.174 29.608 136.12 29.608C133.975 29.608 131.799 30.7811 131.799 32.9806C131.799 34.9946 133.559 36.2873 135.519 36.2873C137.024 36.2873 137.853 35.608 138.371 34.821H138.452V35.9821H140.612V30.2365C140.612 27.5612 138.625 26.0799 136.067 26.0799ZM135.785 34.2943C135.052 34.2943 134.026 33.9352 134.026 33.0135C134.026 31.8524 135.306 31.4125 136.399 31.4125C137.386 31.4125 137.853 31.625 138.44 31.9183C138.278 33.2649 137.141 34.2824 135.785 34.2943ZM148.495 26.4001L145.921 32.9058H145.84L143.174 26.4001H140.762L144.763 35.4943L142.483 40.5487H144.817L150.972 26.4001H148.495ZM128.319 36.0001H130.56V21.0016H128.319V36.0001Z" fill="white"/>
<path fill-rule="evenodd" clip-rule="evenodd" d="M12.5203 9.04052C12.1732 9.41458 11.9727 9.98615 11.9727 10.7343V37.2689C11.9727 38.0171 12.1732 38.5886 12.5323 38.9477L12.625 39.0285L27.4919 24.1617V23.8295L12.6131 8.95972L12.5203 9.04052Z" fill="url(#paint0_linear)"/>
<path fill-rule="evenodd" clip-rule="evenodd" d="M32.4371 29.1321L27.4785 24.1735V23.8264L32.4371 18.8678L32.5448 18.9336L38.4102 22.2673C40.089 23.2129 40.089 24.775 38.4102 25.7326L32.5448 29.0663L32.4371 29.1321Z" fill="url(#paint1_linear)"/>
<path fill-rule="evenodd" clip-rule="evenodd" d="M32.5455 29.0663L27.4791 24L12.5195 38.9596C13.0672 39.5461 13.9859 39.612 15.0123 39.0404L32.5455 29.0663Z" fill="url(#paint2_linear)"/>
<path fill-rule="evenodd" clip-rule="evenodd" d="M32.5455 18.9337L15.0123 8.97458C13.9859 8.38805 13.0642 8.46884 12.5195 9.05538L27.4791 24L32.5455 18.9337Z" fill="url(#paint3_linear)"/>
<path opacity="0.25" fill-rule="evenodd" clip-rule="evenodd" d="M15.0131 9.148L38.4116 22.4408C39.1717 22.8687 39.5996 23.4283 39.6654 23.9999C39.6654 23.3744 39.2525 22.746 38.4116 22.2672L15.0131 8.97444C13.3343 8.01384 11.9727 8.81583 11.9727 10.734V10.9076C11.9727 8.98641 13.3343 8.19937 15.0131 9.148Z" fill="white"/>
<defs>
<linearGradient id="paint0_linear" x1="26.1584" y1="10.448" x2="2.3442" y2="16.7933" gradientUnits="userSpaceOnUse">
<stop stop-color="#00A0FF"/>
<stop offset="0.00657" stop-color="#00A1FF"/>
<stop offset="0.2601" stop-color="#00BEFF"/>
<stop offset="0.5122" stop-color="#00D2FF"/>
<stop offset="0.7604" stop-color="#00DFFF"/>
<stop offset="1" stop-color="#00E3FF"/>
</linearGradient>
<linearGradient id="paint1_linear" x1="40.5995" y1="24" x2="11.5633" y2="24" gradientUnits="userSpaceOnUse">
<stop stop-color="#FFE000"/>
<stop offset="0.4087" stop-color="#FFBD00"/>
<stop offset="0.7754" stop-color="#FFA500"/>
<stop offset="1" stop-color="#FF9C00"/>
</linearGradient>
<linearGradient id="paint2_linear" x1="29.7906" y1="26.7568" x2="10.6728" y2="58.9338" gradientUnits="userSpaceOnUse">
<stop stop-color="#FF3A44"/>
<stop offset="1" stop-color="#C31162"/>
</linearGradient>
<linearGradient id="paint3_linear" x1="8.75255" y1="0.214565" x2="17.2818" y2="14.5853" gradientUnits="userSpaceOnUse">
<stop stop-color="#32A071"/>
<stop offset="0.0685" stop-color="#2DA771"/>
<stop offset="0.4762" stop-color="#15CF74"/>
<stop offset="0.8009" stop-color="#06E775"/>
<stop offset="1" stop-color="#00F076"/>
</linearGradient>
</defs>
</svg>
