<svg width="1036" height="753" viewBox="0 0 1036 753" fill="none" xmlns="http://www.w3.org/2000/svg">
<g filter="url(#filter0_dd)">
<path d="M50 90H986V667C986 673.075 981.075 678 975 678H61C54.9249 678 50 673.075 50 667V90Z" fill="#F8F9FF"/>
<rect x="71" y="360" width="324" height="298" rx="11" fill="white"/>
<rect x="101" y="418" width="241" height="15" rx="7.5" fill="url(#paint0_linear)"/>
<rect x="101" y="483" width="241" height="15" rx="7.5" fill="url(#paint1_linear)"/>
<rect x="101" y="548" width="264" height="15" rx="7.5" fill="url(#paint2_linear)"/>
<rect x="101" y="513" width="264" height="14" rx="7" fill="url(#paint3_linear)"/>
<rect x="101" y="448" width="264" height="14" rx="7" fill="url(#paint4_linear)"/>
<rect x="101" y="584" width="264" height="14" rx="7" fill="url(#paint5_linear)"/>
<path d="M115.146 380.576L111.528 384.215L107.72 380.385C107.21 379.872 106.381 379.872 105.873 380.385L101.383 384.901C101.136 385.15 101 385.479 101 385.83C101 386.181 101.136 386.512 101.383 386.76C101.892 387.273 102.721 387.273 103.23 386.76L106.796 383.174L110.602 387.001C110.848 387.251 111.176 387.385 111.525 387.385C111.842 387.385 112.141 387.273 112.379 387.067L112.401 387.054L116.069 383.365L119.874 387.193C120.158 387.478 120.553 387.612 120.951 387.564C121.262 387.542 121.559 387.406 121.78 387.183L125.346 383.596L129.152 387.424C129.638 387.914 130.414 387.936 130.926 387.492L130.951 387.477L134.619 383.788L138.424 387.616C138.935 388.128 139.763 388.128 140.271 387.616C140.518 387.368 140.652 387.038 140.652 386.687C140.652 386.335 140.516 386.004 140.271 385.757L135.542 380.999C135.293 380.75 134.966 380.615 134.617 380.615C134.268 380.615 133.94 380.752 133.693 380.999L130.075 384.638L126.267 380.808C125.758 380.295 124.929 380.295 124.42 380.808L120.82 384.429L116.989 380.576C116.484 380.066 115.655 380.066 115.146 380.576ZM116.254 381.319L120.824 385.915L125.162 381.55C125.263 381.448 125.43 381.448 125.532 381.55L130.079 386.124L134.435 381.742C134.536 381.64 134.702 381.64 134.804 381.742L139.534 386.5C139.586 386.551 139.61 386.618 139.61 386.687C139.61 386.754 139.585 386.821 139.534 386.873C139.433 386.974 139.267 386.974 139.165 386.873L134.62 382.302L130.316 386.633C130.304 386.643 130.29 386.648 130.278 386.658C130.271 386.665 130.269 386.673 130.262 386.681C130.161 386.783 129.995 386.783 129.893 386.681L125.349 382.11L121.044 386.44C120.991 386.493 120.923 386.516 120.853 386.516C120.77 386.533 120.68 386.514 120.616 386.449L116.071 381.878L111.766 386.208C111.755 386.219 111.741 386.224 111.728 386.233C111.722 386.24 111.719 386.25 111.713 386.257C111.611 386.359 111.445 386.359 111.343 386.257L106.798 381.686L102.494 386.016C102.392 386.118 102.226 386.118 102.124 386.016C102.022 385.913 102.022 385.747 102.124 385.644L106.614 381.128C106.716 381.026 106.882 381.026 106.983 381.128L111.531 385.702L115.887 381.321C115.986 381.217 116.152 381.217 116.254 381.319Z" fill="#1D1D1F"/>
<path d="M170.146 380.576L166.528 384.215L162.72 380.385C162.21 379.872 161.381 379.872 160.873 380.385L156.383 384.901C156.136 385.15 156 385.479 156 385.83C156 386.181 156.136 386.512 156.383 386.76C156.892 387.273 157.721 387.273 158.23 386.76L161.796 383.174L165.602 387.001C165.848 387.251 166.176 387.385 166.525 387.385C166.842 387.385 167.141 387.273 167.379 387.067L167.401 387.054L171.069 383.365L174.874 387.193C175.158 387.478 175.553 387.612 175.951 387.564C176.262 387.542 176.559 387.406 176.78 387.183L180.346 383.596L184.152 387.424C184.638 387.914 185.414 387.936 185.926 387.492L185.951 387.477L189.619 383.788L193.424 387.616C193.935 388.128 194.763 388.128 195.271 387.616C195.518 387.368 195.652 387.038 195.652 386.687C195.652 386.335 195.516 386.004 195.271 385.757L190.542 380.999C190.293 380.75 189.966 380.615 189.617 380.615C189.268 380.615 188.94 380.752 188.693 380.999L185.075 384.638L181.267 380.808C180.758 380.295 179.929 380.295 179.42 380.808L175.82 384.429L171.989 380.576C171.484 380.066 170.655 380.066 170.146 380.576ZM171.254 381.319L175.824 385.915L180.162 381.55C180.263 381.448 180.43 381.448 180.532 381.55L185.079 386.124L189.435 381.742C189.536 381.64 189.702 381.64 189.804 381.742L194.534 386.5C194.586 386.551 194.61 386.618 194.61 386.687C194.61 386.754 194.585 386.821 194.534 386.873C194.433 386.974 194.267 386.974 194.165 386.873L189.62 382.302L185.316 386.633C185.304 386.643 185.29 386.648 185.278 386.658C185.271 386.665 185.269 386.673 185.262 386.681C185.161 386.783 184.995 386.783 184.893 386.681L180.349 382.11L176.044 386.44C175.991 386.493 175.923 386.516 175.853 386.516C175.77 386.533 175.68 386.514 175.616 386.449L171.071 381.878L166.766 386.208C166.755 386.219 166.741 386.224 166.728 386.233C166.722 386.24 166.719 386.25 166.713 386.257C166.611 386.359 166.445 386.359 166.343 386.257L161.798 381.686L157.494 386.016C157.392 386.118 157.226 386.118 157.124 386.016C157.022 385.913 157.022 385.747 157.124 385.644L161.614 381.128C161.716 381.026 161.882 381.026 161.983 381.128L166.531 385.702L170.887 381.321C170.986 381.217 171.152 381.217 171.254 381.319Z" fill="#1D1D1F"/>
<path d="M339.146 380.576L335.528 384.215L331.72 380.385C331.21 379.872 330.381 379.872 329.873 380.385L325.383 384.901C325.136 385.15 325 385.479 325 385.83C325 386.181 325.136 386.512 325.383 386.76C325.892 387.273 326.721 387.273 327.23 386.76L330.796 383.174L334.602 387.001C334.848 387.251 335.176 387.385 335.525 387.385C335.842 387.385 336.141 387.273 336.379 387.067L336.401 387.054L340.069 383.365L343.874 387.193C344.158 387.478 344.553 387.612 344.951 387.564C345.262 387.542 345.559 387.406 345.78 387.183L349.346 383.596L353.152 387.424C353.638 387.914 354.414 387.936 354.926 387.492L354.951 387.477L358.619 383.788L362.424 387.616C362.935 388.128 363.763 388.128 364.271 387.616C364.518 387.368 364.652 387.038 364.652 386.687C364.652 386.335 364.516 386.004 364.271 385.757L359.542 380.999C359.293 380.75 358.966 380.615 358.617 380.615C358.268 380.615 357.94 380.752 357.693 380.999L354.075 384.638L350.267 380.808C349.758 380.295 348.929 380.295 348.42 380.808L344.82 384.429L340.989 380.576C340.484 380.066 339.655 380.066 339.146 380.576ZM340.254 381.319L344.824 385.915L349.162 381.55C349.263 381.448 349.43 381.448 349.532 381.55L354.079 386.124L358.435 381.742C358.536 381.64 358.702 381.64 358.804 381.742L363.534 386.5C363.586 386.551 363.61 386.618 363.61 386.687C363.61 386.754 363.585 386.821 363.534 386.873C363.433 386.974 363.267 386.974 363.165 386.873L358.62 382.302L354.316 386.633C354.304 386.643 354.29 386.648 354.278 386.658C354.271 386.665 354.269 386.673 354.262 386.681C354.161 386.783 353.995 386.783 353.893 386.681L349.349 382.11L345.044 386.44C344.991 386.493 344.923 386.516 344.853 386.516C344.77 386.533 344.68 386.514 344.616 386.449L340.071 381.878L335.766 386.208C335.755 386.219 335.741 386.224 335.728 386.233C335.722 386.24 335.719 386.25 335.713 386.257C335.611 386.359 335.445 386.359 335.343 386.257L330.798 381.686L326.494 386.016C326.392 386.118 326.226 386.118 326.124 386.016C326.022 385.913 326.022 385.747 326.124 385.644L330.614 381.128C330.716 381.026 330.882 381.026 330.983 381.128L335.531 385.702L339.887 381.321C339.986 381.217 340.152 381.217 340.254 381.319Z" fill="#5D21D2"/>
<rect x="415" y="360" width="324" height="298" rx="11" fill="white"/>
<rect x="445" y="380" width="264" height="203" rx="11" fill="#F3F7FB"/>
<path fill-rule="evenodd" clip-rule="evenodd" d="M568.879 487.35C570.105 488.857 572.418 488.819 573.594 487.272L588.856 467.195C590.069 465.6 592.476 465.62 593.662 467.235L613.491 494.224C614.947 496.205 613.532 499 611.073 499H543.057C540.575 499 539.166 496.157 540.671 494.182L554.691 475.78C555.868 474.236 558.179 474.199 559.404 475.705L568.879 487.35Z" fill="#C0D7E9"/>
<circle cx="569" cy="471" r="4" fill="#C0D7E9"/>
<rect x="650" y="603" width="59" height="15" rx="7.5" fill="#C0D7E9"/>
<rect x="445" y="603" width="140" height="12" rx="6" fill="#E1EBF4"/>
<rect x="445" y="626" width="99" height="12" rx="6" fill="#E1EBF4"/>
<rect x="759" y="196" width="207" height="462" rx="11" fill="white"/>
<circle cx="828.5" cy="233.5" r="3.5" fill="#F98561"/>
<path fill-rule="evenodd" clip-rule="evenodd" d="M862.683 425C905.867 425 941 389.784 941 346.499C941 303.214 905.867 268 862.683 268C859.87 268 857.589 270.286 857.589 273.105C857.589 275.924 859.87 278.21 862.683 278.21C900.25 278.21 930.813 308.845 930.813 346.499C930.813 384.153 900.25 414.788 862.683 414.788C842.226 414.788 823.034 405.694 810.029 389.837C808.241 387.661 805.031 387.345 802.859 389.135C800.686 390.926 800.373 394.144 802.159 396.322C817.107 414.548 839.167 425 862.683 425Z" fill="url(#paint6_linear)"/>
<path fill-rule="evenodd" clip-rule="evenodd" d="M862.5 411C898.066 411 927 382.29 927 347C927 311.71 898.066 283 862.5 283C859.665 283 857.366 285.281 857.366 288.094C857.366 290.909 859.665 293.189 862.5 293.189C892.403 293.189 916.732 317.329 916.732 347C916.732 376.672 892.403 400.812 862.5 400.812C832.597 400.812 808.268 376.672 808.268 347C808.268 340.643 809.373 334.423 811.552 328.512C812.527 325.87 811.157 322.945 808.495 321.979C805.831 321.012 802.882 322.37 801.909 325.013C799.315 332.048 798 339.446 798 347C798 382.29 826.934 411 862.5 411Z" fill="url(#paint7_linear)"/>
<path fill-rule="evenodd" clip-rule="evenodd" d="M862.5 395C889.243 395 911 373.242 911 346.5C911 319.757 889.243 298 862.5 298C859.662 298 857.361 300.3 857.361 303.138C857.361 305.978 859.662 308.278 862.5 308.278C883.576 308.278 900.722 325.425 900.722 346.5C900.722 367.575 883.576 384.723 862.5 384.723C841.424 384.723 824.278 367.575 824.278 346.5C824.278 336.006 828.446 326.219 836.014 318.943C838.06 316.976 838.124 313.722 836.157 311.677C834.19 309.629 830.937 309.567 828.89 311.533C819.289 320.765 814 333.183 814 346.5C814 373.242 835.757 395 862.5 395Z" fill="url(#paint8_linear)"/>
<rect x="587" y="196" width="152" height="144" rx="11" fill="white"/>
<rect x="415" y="196" width="152" height="144" rx="11" fill="white"/>
<rect x="243" y="196" width="152" height="144" rx="11" fill="white"/>
<rect x="70" y="120" width="24" height="12" rx="6" fill="#4F31C9"/>
<rect x="104" y="120" width="204" height="12" rx="6" fill="#C0D7E9"/>
<rect x="70" y="144" width="320" height="11" rx="5.5" fill="#E1EBF4"/>
<rect x="70" y="162" width="408" height="11" rx="5.5" fill="#E1EBF4"/>
<rect x="264" y="281" width="110" height="12" rx="6" fill="#E1EBF4"/>
<rect x="289" y="303" width="60" height="12" rx="6" fill="#E1EBF4"/>
<g filter="url(#filter1_i)">
<rect x="914" y="230.932" width="27.0324" height="16.0733" rx="8.03667" fill="#017AFF"/>
</g>
<rect x="925.689" y="231.663" width="14.6121" height="14.6121" rx="7.30607" fill="white"/>
<rect x="784" y="230" width="33" height="7" rx="3.5" fill="#C0D7E9"/>
<path fill-rule="evenodd" clip-rule="evenodd" d="M295 245C295 258.248 305.752 269 319 269C332.248 269 343 258.248 343 245C343 231.752 332.248 221 319 221C305.752 221 295 231.752 295 245Z" fill="#F3F7FB"/>
<path fill-rule="evenodd" clip-rule="evenodd" d="M326.201 235.4C326.201 239.384 322.985 242.6 319.001 242.6C315.017 242.6 311.801 239.384 311.801 235.4C311.801 231.416 315.017 228.2 319.001 228.2C322.985 228.2 326.201 231.416 326.201 235.4Z" fill="#C0D7E9"/>
<path fill-rule="evenodd" clip-rule="evenodd" d="M304.6 254.552C304.672 249.776 314.2 247.16 319 247.16C323.776 247.16 333.328 249.776 333.4 254.552C330.304 259.208 325 262.28 319 262.28C313 262.28 307.696 259.208 304.6 254.552Z" fill="#C0D7E9"/>
<rect x="436" y="281" width="110" height="12" rx="6" fill="#E1EBF4"/>
<rect x="461" y="303" width="60" height="12" rx="6" fill="#E1EBF4"/>
<path fill-rule="evenodd" clip-rule="evenodd" d="M467 245C467 258.248 477.752 269 491 269C504.248 269 515 258.248 515 245C515 231.752 504.248 221 491 221C477.752 221 467 231.752 467 245Z" fill="#F3F7FB"/>
<path fill-rule="evenodd" clip-rule="evenodd" d="M498.201 235.4C498.201 239.384 494.985 242.6 491.001 242.6C487.017 242.6 483.801 239.384 483.801 235.4C483.801 231.416 487.017 228.2 491.001 228.2C494.985 228.2 498.201 231.416 498.201 235.4Z" fill="#C0D7E9"/>
<path fill-rule="evenodd" clip-rule="evenodd" d="M476.6 254.552C476.672 249.776 486.2 247.16 491 247.16C495.776 247.16 505.328 249.776 505.4 254.552C502.304 259.208 497 262.28 491 262.28C485 262.28 479.696 259.208 476.6 254.552Z" fill="#C0D7E9"/>
<rect x="71" y="196" width="152" height="144" rx="11" fill="white"/>
<rect x="92" y="281" width="110" height="12" rx="6" fill="#E1EBF4"/>
<rect x="117" y="303" width="60" height="12" rx="6" fill="#E1EBF4"/>
<path fill-rule="evenodd" clip-rule="evenodd" d="M123 245C123 258.248 133.752 269 147 269C160.248 269 171 258.248 171 245C171 231.752 160.248 221 147 221C133.752 221 123 231.752 123 245Z" fill="#F3F7FB"/>
<path fill-rule="evenodd" clip-rule="evenodd" d="M154.201 235.4C154.201 239.384 150.985 242.6 147.001 242.6C143.017 242.6 139.801 239.384 139.801 235.4C139.801 231.416 143.017 228.2 147.001 228.2C150.985 228.2 154.201 231.416 154.201 235.4Z" fill="#C0D7E9"/>
<path fill-rule="evenodd" clip-rule="evenodd" d="M132.6 254.552C132.672 249.776 142.2 247.16 147 247.16C151.776 247.16 161.328 249.776 161.4 254.552C158.304 259.208 153 262.28 147 262.28C141 262.28 135.696 259.208 132.6 254.552Z" fill="#C0D7E9"/>
<rect x="608" y="281" width="110" height="12" rx="6" fill="#E1EBF4"/>
<rect x="633" y="303" width="60" height="12" rx="6" fill="#E1EBF4"/>
<path fill-rule="evenodd" clip-rule="evenodd" d="M639 245C639 258.248 649.752 269 663 269C676.248 269 687 258.248 687 245C687 231.752 676.248 221 663 221C649.752 221 639 231.752 639 245Z" fill="#F3F7FB"/>
<path fill-rule="evenodd" clip-rule="evenodd" d="M670.201 235.4C670.201 239.384 666.985 242.6 663.001 242.6C659.017 242.6 655.801 239.384 655.801 235.4C655.801 231.416 659.017 228.2 663.001 228.2C666.985 228.2 670.201 231.416 670.201 235.4Z" fill="#C0D7E9"/>
<path fill-rule="evenodd" clip-rule="evenodd" d="M648.6 254.552C648.672 249.776 658.2 247.16 663 247.16C667.776 247.16 677.328 249.776 677.4 254.552C674.304 259.208 669 262.28 663 262.28C657 262.28 651.696 259.208 648.6 254.552Z" fill="#C0D7E9"/>
<rect x="844" y="462" width="100" height="11" rx="5.5" fill="#C0D7E9"/>
<rect x="844" y="482" width="100" height="10" rx="5" fill="#E1EBF4"/>
<rect x="784" y="455" width="45" height="45" rx="22.5" fill="#E1EBF4"/>
<path fill-rule="evenodd" clip-rule="evenodd" d="M814.26 474.796L809.579 474.33C809.284 474.302 809.029 474.104 808.908 473.808L807.231 469.529C806.963 468.824 806.01 468.824 805.742 469.529L804.079 473.808C803.971 474.104 803.703 474.302 803.408 474.33L798.726 474.796C798.029 474.866 797.747 475.784 798.27 476.278L801.798 479.54C802.026 479.752 802.12 480.062 802.053 480.373L800.993 484.947C800.832 485.668 801.57 486.26 802.187 485.879L806.091 483.465C806.346 483.309 806.654 483.309 806.909 483.465L810.813 485.879C811.43 486.26 812.168 485.682 812.007 484.947L810.96 480.373C810.893 480.062 810.987 479.752 811.215 479.54L814.743 476.278C815.253 475.784 814.958 474.866 814.26 474.796Z" fill="#1D1D1F"/>
<rect x="844" y="527" width="100" height="11" rx="5.5" fill="#C0D7E9"/>
<rect x="844" y="547" width="100" height="10" rx="5" fill="#E1EBF4"/>
<rect x="784" y="520" width="45" height="45" rx="22.5" fill="#E1EBF4"/>
<path fill-rule="evenodd" clip-rule="evenodd" d="M814.26 539.796L809.579 539.33C809.284 539.302 809.029 539.104 808.908 538.808L807.231 534.529C806.963 533.824 806.01 533.824 805.742 534.529L804.079 538.808C803.971 539.104 803.703 539.302 803.408 539.33L798.726 539.796C798.029 539.866 797.747 540.784 798.27 541.278L801.798 544.54C802.026 544.752 802.12 545.062 802.053 545.373L800.993 549.947C800.832 550.668 801.57 551.26 802.187 550.879L806.091 548.465C806.346 548.309 806.654 548.309 806.909 548.465L810.813 550.879C811.43 551.26 812.168 550.682 812.007 549.947L810.96 545.373C810.893 545.062 810.987 544.752 811.215 544.54L814.743 541.278C815.253 540.784 814.958 539.866 814.26 539.796Z" fill="#1D1D1F"/>
<rect x="844" y="592" width="100" height="11" rx="5.5" fill="#C0D7E9"/>
<rect x="844" y="612" width="100" height="10" rx="5" fill="#E1EBF4"/>
<rect x="784" y="585" width="45" height="45" rx="22.5" fill="#E1EBF4"/>
<path fill-rule="evenodd" clip-rule="evenodd" d="M814.26 604.796L809.579 604.33C809.284 604.302 809.029 604.104 808.908 603.808L807.231 599.529C806.963 598.824 806.01 598.824 805.742 599.529L804.079 603.808C803.971 604.104 803.703 604.302 803.408 604.33L798.726 604.796C798.029 604.866 797.747 605.784 798.27 606.278L801.798 609.54C802.026 609.752 802.12 610.062 802.053 610.373L800.993 614.947C800.832 615.668 801.57 616.26 802.187 615.879L806.091 613.465C806.346 613.309 806.654 613.309 806.909 613.465L810.813 615.879C811.43 616.26 812.168 615.682 812.007 614.947L810.96 610.373C810.893 610.062 810.987 609.752 811.215 609.54L814.743 606.278C815.253 605.784 814.958 604.866 814.26 604.796Z" fill="#1D1D1F"/>
<g filter="url(#filter2_d)">
<path d="M50 49C50 42.9249 54.9249 38 61 38H975C981.075 38 986 42.9249 986 49V90H50V49Z" fill="#D2E1EF"/>
<g filter="url(#filter3_b)">
<path d="M50 49C50 42.9249 54.9249 38 61 38H975C981.075 38 986 42.9249 986 49V90H50V49Z" fill="#301C6B" style="mix-blend-mode:hard-light"/>
</g>
<circle cx="117" cy="63" r="6" fill="#5FCF65"/>
<circle cx="97" cy="63" r="6" fill="#F8CE52"/>
<circle cx="77" cy="63" r="6" fill="#F96057"/>
<circle cx="77" cy="63" r="5.75" stroke="black" stroke-opacity="0.1" stroke-width="0.5" style="mix-blend-mode:luminosity"/>
<circle cx="97" cy="63" r="5.75" stroke="black" stroke-opacity="0.1" stroke-width="0.5" style="mix-blend-mode:luminosity"/>
<circle cx="117" cy="63" r="5.75" stroke="black" stroke-opacity="0.1" stroke-width="0.5" style="mix-blend-mode:luminosity"/>
<path d="M887 71.0156C886.508 71.0156 886.109 70.6094 886.109 70.1484V65.2578H881.344C880.867 65.2578 880.461 64.8594 880.461 64.3672C880.461 63.8828 880.867 63.4766 881.344 63.4766H886.109V58.5859C886.109 58.1172 886.508 57.7188 887 57.7188C887.484 57.7188 887.891 58.1172 887.891 58.5859V63.4766H892.656C893.117 63.4766 893.539 63.8828 893.539 64.3672C893.539 64.8594 893.117 65.2578 892.656 65.2578H887.891V70.1484C887.891 70.6094 887.484 71.0156 887 71.0156Z" fill="#9DC1DD"/>
<path d="M964.914 69.0391H963.586V70.2188C963.586 71.8906 962.703 72.7656 961.016 72.7656H953.094C951.406 72.7656 950.523 71.8906 950.523 70.2188V62.2422C950.523 60.5703 951.406 59.6953 953.094 59.6953H954.422V58.5234C954.422 56.8516 955.305 55.9766 956.992 55.9766H964.914C966.609 55.9766 967.484 56.8516 967.484 58.5234V66.4922C967.484 68.1719 966.609 69.0391 964.914 69.0391ZM964.812 67.4844C965.531 67.4844 965.93 67.1094 965.93 66.3516V58.6641C965.93 57.9062 965.531 57.5391 964.812 57.5391H957.094C956.383 57.5391 955.977 57.9062 955.977 58.6641V59.6953H961.016C962.703 59.6953 963.586 60.5703 963.586 62.2422V67.4844H964.812ZM960.914 71.2031C961.633 71.2031 962.023 70.8281 962.023 70.0781V62.3828C962.023 61.6328 961.633 61.2578 960.914 61.2578H953.195C952.477 61.2578 952.078 61.6328 952.078 62.3828V70.0781C952.078 70.8281 952.477 71.2031 953.195 71.2031H960.914Z" fill="#9DC1DD"/>
<path d="M162.688 70.6719H149.32C147.625 70.6719 146.742 69.7969 146.742 68.125V58.6172C146.742 56.9453 147.625 56.0703 149.32 56.0703H162.688C164.375 56.0703 165.258 56.9375 165.258 58.6172V68.125C165.258 69.7969 164.375 70.6719 162.688 70.6719ZM162.586 69.1172C163.305 69.1172 163.703 68.7422 163.703 67.9844V58.7578C163.703 58 163.305 57.625 162.586 57.625H159.023V69.1172H162.586ZM149.422 57.625C148.703 57.625 148.305 58 148.305 58.7578V67.9844C148.305 68.7422 148.703 69.1172 149.422 69.1172H157.547V57.625H149.422ZM160.555 60.4844C160.273 60.4844 160.039 60.2422 160.039 59.9766C160.039 59.7109 160.273 59.4766 160.555 59.4766H162.156C162.438 59.4766 162.672 59.7109 162.672 59.9766C162.672 60.2422 162.438 60.4844 162.156 60.4844H160.555ZM160.555 62.5859C160.273 62.5859 160.039 62.3516 160.039 62.0781C160.039 61.8125 160.273 61.5781 160.555 61.5781H162.156C162.438 61.5781 162.672 61.8125 162.672 62.0781C162.672 62.3516 162.438 62.5859 162.156 62.5859H160.555ZM160.555 64.6797C160.273 64.6797 160.039 64.4531 160.039 64.1797C160.039 63.9141 160.273 63.6875 160.555 63.6875H162.156C162.438 63.6875 162.672 63.9141 162.672 64.1797C162.672 64.4531 162.438 64.6797 162.156 64.6797H160.555Z" fill="#9DC1DD"/>
<rect x="336" y="51" width="462" height="26" rx="4" fill="#E8F0F7"/>
<path d="M522.94 67.998C523.949 67.998 524.895 67.6934 525.682 67.1729L528.462 69.9595C528.646 70.1372 528.881 70.2261 529.135 70.2261C529.662 70.2261 530.049 69.8135 530.049 69.293C530.049 69.0518 529.967 68.8169 529.789 68.6392L527.028 65.8652C527.599 65.0591 527.936 64.0688 527.936 63.0024C527.936 60.2539 525.688 58.0068 522.94 58.0068C520.198 58.0068 517.944 60.2539 517.944 63.0024C517.944 65.751 520.191 67.998 522.94 67.998ZM522.94 66.665C520.928 66.665 519.277 65.0146 519.277 63.0024C519.277 60.9966 520.928 59.3398 522.94 59.3398C524.952 59.3398 526.603 60.9966 526.603 63.0024C526.603 65.0146 524.952 66.665 522.94 66.665Z" fill="#9DC1DD"/>
<path d="M540.17 69.0137C542.214 69.0137 543.554 67.9473 543.554 66.2334V66.2271C543.554 64.9067 542.798 64.1387 540.888 63.7134L539.872 63.4849C538.628 63.2119 538.126 62.7168 538.126 61.9868V61.9805C538.126 61.022 539.009 60.4824 540.151 60.4761C541.345 60.4697 542.106 61.0664 542.233 61.8726L542.246 61.9551H543.389L543.382 61.8662C543.287 60.5015 542.011 59.4224 540.183 59.4224C538.292 59.4224 536.965 60.4951 536.958 62.0122V62.0186C536.958 63.3452 537.752 64.1895 539.586 64.5957L540.602 64.8179C541.859 65.0972 542.386 65.6177 542.386 66.3794V66.3857C542.386 67.3188 541.478 67.96 540.234 67.96C538.914 67.96 537.961 67.3823 537.879 66.4683L537.873 66.3984H536.73L536.736 66.4683C536.87 67.96 538.165 69.0137 540.17 69.0137ZM548.111 68.9185C549.724 68.9185 550.701 68.0044 550.936 67.0776L550.949 67.0269H549.844L549.819 67.084C549.635 67.4966 549.063 67.9346 548.137 67.9346C546.918 67.9346 546.137 67.1094 546.105 65.6938H551.031V65.2622C551.031 63.2183 549.901 61.8345 548.042 61.8345C546.182 61.8345 544.976 63.2817 544.976 65.3955V65.4019C544.976 67.5474 546.156 68.9185 548.111 68.9185ZM548.035 62.8184C549.044 62.8184 549.793 63.4595 549.908 64.8115H546.125C546.245 63.5103 547.02 62.8184 548.035 62.8184ZM554.624 68.9185C555.544 68.9185 556.262 68.5186 556.693 67.7886H556.795V68.7979H557.899V64.1133C557.899 62.6914 556.966 61.8345 555.297 61.8345C553.837 61.8345 552.796 62.5581 552.618 63.6309L552.612 63.6689H553.716L553.723 63.6499C553.9 63.1167 554.44 62.812 555.259 62.812C556.281 62.812 556.795 63.269 556.795 64.1133V64.7354L554.833 64.856C553.24 64.9512 552.339 65.6558 552.339 66.8745V66.8872C552.339 68.1313 553.323 68.9185 554.624 68.9185ZM553.469 66.8618V66.8491C553.469 66.1699 553.926 65.8018 554.967 65.7383L556.795 65.624V66.2461C556.795 67.2236 555.976 67.96 554.853 67.96C554.059 67.96 553.469 67.5537 553.469 66.8618ZM559.918 68.7979H561.022V64.5576C561.022 63.5547 561.771 62.8882 562.825 62.8882C563.066 62.8882 563.276 62.9136 563.504 62.9517V61.8789C563.396 61.8599 563.162 61.8345 562.952 61.8345C562.025 61.8345 561.384 62.2534 561.124 62.9707H561.022V61.9551H559.918V68.7979ZM567.478 68.9185C569.122 68.9185 570.042 68.0361 570.322 66.7983L570.334 66.7285L569.243 66.7349L569.23 66.7729C568.976 67.5347 568.392 67.9409 567.472 67.9409C566.253 67.9409 565.466 66.9316 565.466 65.3574V65.3447C565.466 63.8022 566.24 62.812 567.472 62.812C568.456 62.812 569.065 63.3579 569.236 64.0308L569.243 64.0498H570.341L570.334 64.0117C570.131 62.793 569.135 61.8345 567.472 61.8345C565.555 61.8345 564.336 63.2183 564.336 65.3447V65.3574C564.336 67.5283 565.561 68.9185 567.478 68.9185ZM572.017 68.7979H573.121V64.748C573.121 63.5483 573.813 62.812 574.905 62.812C575.997 62.812 576.504 63.4023 576.504 64.6338V68.7979H577.609V64.3672C577.609 62.7422 576.752 61.8345 575.216 61.8345C574.207 61.8345 573.565 62.2598 573.223 62.9834H573.121V59.2383H572.017V68.7979ZM586.089 68.9185C588.038 68.9185 589.244 67.5728 589.244 65.3828V65.3701C589.244 63.1738 588.038 61.8345 586.089 61.8345C584.141 61.8345 582.935 63.1738 582.935 65.3701V65.3828C582.935 67.5728 584.141 68.9185 586.089 68.9185ZM586.089 67.9409C584.794 67.9409 584.064 66.9951 584.064 65.3828V65.3701C584.064 63.7515 584.794 62.812 586.089 62.812C587.384 62.812 588.114 63.7515 588.114 65.3701V65.3828C588.114 66.9951 587.384 67.9409 586.089 67.9409ZM590.958 68.7979H592.062V64.5576C592.062 63.5547 592.812 62.8882 593.865 62.8882C594.106 62.8882 594.316 62.9136 594.544 62.9517V61.8789C594.437 61.8599 594.202 61.8345 593.992 61.8345C593.065 61.8345 592.424 62.2534 592.164 62.9707H592.062V61.9551H590.958V68.7979ZM602.371 68.9185C603.983 68.9185 604.961 68.0044 605.196 67.0776L605.208 67.0269H604.104L604.079 67.084C603.895 67.4966 603.323 67.9346 602.396 67.9346C601.178 67.9346 600.397 67.1094 600.365 65.6938H605.291V65.2622C605.291 63.2183 604.161 61.8345 602.301 61.8345C600.441 61.8345 599.235 63.2817 599.235 65.3955V65.4019C599.235 67.5474 600.416 68.9185 602.371 68.9185ZM602.295 62.8184C603.304 62.8184 604.053 63.4595 604.167 64.8115H600.384C600.505 63.5103 601.279 62.8184 602.295 62.8184ZM607.005 68.7979H608.109V64.748C608.109 63.5483 608.801 62.812 609.893 62.812C610.985 62.812 611.493 63.4023 611.493 64.6338V68.7979H612.597V64.3672C612.597 62.7422 611.74 61.8345 610.204 61.8345C609.195 61.8345 608.554 62.2598 608.211 62.9834H608.109V61.9551H607.005V68.7979ZM617.028 68.8486C617.244 68.8486 617.453 68.8232 617.669 68.7852V67.8457C617.466 67.8647 617.358 67.8711 617.161 67.8711C616.45 67.8711 616.171 67.5474 616.171 66.7412V62.8691H617.669V61.9551H616.171V60.1841H615.028V61.9551H613.949V62.8691H615.028V67.0205C615.028 68.3281 615.619 68.8486 617.028 68.8486ZM622.011 68.9185C623.623 68.9185 624.601 68.0044 624.835 67.0776L624.848 67.0269H623.744L623.718 67.084C623.534 67.4966 622.963 67.9346 622.036 67.9346C620.817 67.9346 620.037 67.1094 620.005 65.6938H624.931V65.2622C624.931 63.2183 623.801 61.8345 621.941 61.8345C620.081 61.8345 618.875 63.2817 618.875 65.3955V65.4019C618.875 67.5474 620.056 68.9185 622.011 68.9185ZM621.935 62.8184C622.944 62.8184 623.693 63.4595 623.807 64.8115H620.024C620.145 63.5103 620.919 62.8184 621.935 62.8184ZM626.645 68.7979H627.749V64.5576C627.749 63.5547 628.498 62.8882 629.552 62.8882C629.793 62.8882 630.002 62.9136 630.231 62.9517V61.8789C630.123 61.8599 629.888 61.8345 629.679 61.8345C628.752 61.8345 628.111 62.2534 627.851 62.9707H627.749V61.9551H626.645V68.7979ZM636.585 68.7979H637.689L639.213 63.5039H639.314L640.844 68.7979H641.955L643.872 61.9551H642.774L641.428 67.4268H641.327L639.797 61.9551H638.75L637.22 67.4268H637.118L635.772 61.9551H634.668L636.585 68.7979ZM647.871 68.9185C649.483 68.9185 650.461 68.0044 650.696 67.0776L650.708 67.0269H649.604L649.579 67.084C649.395 67.4966 648.823 67.9346 647.896 67.9346C646.678 67.9346 645.897 67.1094 645.865 65.6938H650.791V65.2622C650.791 63.2183 649.661 61.8345 647.801 61.8345C645.941 61.8345 644.735 63.2817 644.735 65.3955V65.4019C644.735 67.5474 645.916 68.9185 647.871 68.9185ZM647.795 62.8184C648.804 62.8184 649.553 63.4595 649.667 64.8115H645.884C646.005 63.5103 646.779 62.8184 647.795 62.8184ZM655.907 68.9185C657.64 68.9185 658.776 67.5156 658.776 65.3828V65.3701C658.776 63.2246 657.646 61.8345 655.907 61.8345C654.968 61.8345 654.149 62.3042 653.774 63.0342H653.673V59.2383H652.568V68.7979H653.673V67.7061H653.774C654.193 68.4678 654.955 68.9185 655.907 68.9185ZM655.653 67.9409C654.409 67.9409 653.647 66.9634 653.647 65.3828V65.3701C653.647 63.7896 654.409 62.812 655.653 62.812C656.904 62.812 657.646 63.7769 657.646 65.3701V65.3828C657.646 66.9761 656.904 67.9409 655.653 67.9409ZM662.839 68.9185C664.394 68.9185 665.581 68.0742 665.581 66.8555V66.8428C665.581 65.8652 664.959 65.3066 663.67 64.9956L662.617 64.7417C661.811 64.5449 661.468 64.2529 661.468 63.7896V63.7769C661.468 63.1738 662.064 62.7549 662.877 62.7549C663.702 62.7549 664.235 63.1294 664.381 63.6689H665.467C665.314 62.5518 664.318 61.8345 662.883 61.8345C661.43 61.8345 660.338 62.6914 660.338 63.8276V63.834C660.338 64.8179 660.916 65.3765 662.198 65.6812L663.258 65.9351C664.102 66.1382 664.451 66.4619 664.451 66.9253V66.938C664.451 67.5601 663.797 67.998 662.877 67.998C662.001 67.998 661.455 67.6235 661.271 67.0522H660.141C660.268 68.1821 661.315 68.9185 662.839 68.9185ZM667.879 60.6348C668.298 60.6348 668.641 60.292 668.641 59.873C668.641 59.4541 668.298 59.1113 667.879 59.1113C667.46 59.1113 667.117 59.4541 667.117 59.873C667.117 60.292 667.46 60.6348 667.879 60.6348ZM667.32 68.7979H668.425V61.9551H667.32V68.7979ZM672.938 68.8486C673.154 68.8486 673.363 68.8232 673.579 68.7852V67.8457C673.376 67.8647 673.268 67.8711 673.071 67.8711C672.36 67.8711 672.081 67.5474 672.081 66.7412V62.8691H673.579V61.9551H672.081V60.1841H670.938V61.9551H669.859V62.8691H670.938V67.0205C670.938 68.3281 671.529 68.8486 672.938 68.8486ZM677.921 68.9185C679.533 68.9185 680.511 68.0044 680.746 67.0776L680.758 67.0269H679.654L679.628 67.084C679.444 67.4966 678.873 67.9346 677.946 67.9346C676.728 67.9346 675.947 67.1094 675.915 65.6938H680.841V65.2622C680.841 63.2183 679.711 61.8345 677.851 61.8345C675.991 61.8345 674.785 63.2817 674.785 65.3955V65.4019C674.785 67.5474 675.966 68.9185 677.921 68.9185ZM677.845 62.8184C678.854 62.8184 679.603 63.4595 679.717 64.8115H675.934C676.055 63.5103 676.829 62.8184 677.845 62.8184ZM686.224 68.7979H687.328V64.748C687.328 63.5483 688.02 62.812 689.112 62.812C690.204 62.812 690.711 63.4023 690.711 64.6338V68.7979H691.816V64.3672C691.816 62.7422 690.959 61.8345 689.423 61.8345C688.414 61.8345 687.772 62.2598 687.43 62.9834H687.328V61.9551H686.224V68.7979ZM695.694 68.9185C696.615 68.9185 697.332 68.5186 697.764 67.7886H697.865V68.7979H698.97V64.1133C698.97 62.6914 698.037 61.8345 696.367 61.8345C694.907 61.8345 693.866 62.5581 693.688 63.6309L693.682 63.6689H694.787L694.793 63.6499C694.971 63.1167 695.51 62.812 696.329 62.812C697.351 62.812 697.865 63.269 697.865 64.1133V64.7354L695.904 64.856C694.311 64.9512 693.409 65.6558 693.409 66.8745V66.8872C693.409 68.1313 694.393 68.9185 695.694 68.9185ZM694.539 66.8618V66.8491C694.539 66.1699 694.996 65.8018 696.037 65.7383L697.865 65.624V66.2461C697.865 67.2236 697.046 67.96 695.923 67.96C695.129 67.96 694.539 67.5537 694.539 66.8618ZM700.988 68.7979H702.093V64.5576C702.093 63.5928 702.772 62.812 703.667 62.812C704.53 62.812 705.089 63.3389 705.089 64.1514V68.7979H706.193V64.3989C706.193 63.5293 706.822 62.812 707.774 62.812C708.739 62.812 709.202 63.3135 709.202 64.3228V68.7979H710.307V64.0688C710.307 62.6343 709.526 61.8345 708.129 61.8345C707.184 61.8345 706.403 62.3105 706.035 63.0342H705.933C705.616 62.3232 704.968 61.8345 704.042 61.8345C703.146 61.8345 702.499 62.2598 702.194 62.9961H702.093V61.9551H700.988V68.7979ZM715.093 68.9185C716.705 68.9185 717.683 68.0044 717.917 67.0776L717.93 67.0269H716.826L716.8 67.084C716.616 67.4966 716.045 67.9346 715.118 67.9346C713.899 67.9346 713.119 67.1094 713.087 65.6938H718.013V65.2622C718.013 63.2183 716.883 61.8345 715.023 61.8345C713.163 61.8345 711.957 63.2817 711.957 65.3955V65.4019C711.957 67.5474 713.138 68.9185 715.093 68.9185ZM715.017 62.8184C716.026 62.8184 716.775 63.4595 716.889 64.8115H713.106C713.227 63.5103 714.001 62.8184 715.017 62.8184Z" fill="#9DC1DD"/>
<path d="M315 71.5C314.859 71.5 314.648 71.4531 314.453 71.3438C309.953 68.8984 308.391 67.7656 308.391 64.9219V59.0234C308.391 58.0859 308.758 57.75 309.539 57.4141C310.406 57.0469 313.32 56.0312 314.172 55.7422C314.43 55.6562 314.734 55.6016 315 55.6016C315.266 55.6016 315.57 55.6719 315.828 55.7422C316.68 55.9844 319.594 57.0547 320.461 57.4141C321.242 57.7422 321.609 58.0859 321.609 59.0234V64.9219C321.609 67.7656 320.039 68.8828 315.555 71.3438C315.352 71.4531 315.141 71.5 315 71.5ZM314.578 57.1797C313.555 57.5859 311.328 58.375 310.156 58.7891C309.938 58.875 309.883 58.9922 309.883 59.2734V64.6328C309.883 66.9219 311.031 67.5391 314.555 69.6641C314.773 69.7969 314.883 69.8438 314.992 69.8438V57.0938C314.883 57.0938 314.766 57.1172 314.578 57.1797Z" fill="#9DC1DD"/>
<path d="M825.227 63.4766C825 63.4766 824.82 63.4062 824.68 63.2578L821.477 60.0312C821.305 59.8594 821.227 59.6719 821.227 59.4531C821.227 59.2422 821.312 59.0391 821.477 58.8828L824.68 55.625C824.82 55.4688 825 55.3906 825.227 55.3906C825.648 55.3906 825.984 55.7422 825.984 56.1719C825.984 56.3828 825.906 56.5547 825.773 56.7031L823.906 58.5312C824.273 58.4766 824.648 58.4453 825.023 58.4453C828.891 58.4453 831.984 61.5391 831.984 65.4141C831.984 69.2891 828.867 72.4062 825 72.4062C821.125 72.4062 818.016 69.2891 818.016 65.4141C818.016 64.9453 818.344 64.6094 818.812 64.6094C819.266 64.6094 819.57 64.9453 819.57 65.4141C819.57 68.4297 821.984 70.8516 825 70.8516C828.008 70.8516 830.43 68.4297 830.43 65.4141C830.43 62.375 828.031 59.9688 825.023 59.9688C824.516 59.9688 824.047 60.0078 823.633 60.0781L825.766 62.1875C825.906 62.3281 825.984 62.5 825.984 62.7109C825.984 63.1406 825.648 63.4766 825.227 63.4766Z" fill="#9DC1DD"/>
<path d="M922.008 66.4141C922.406 66.4141 922.734 66.0859 922.734 65.6953V57.8359L922.68 56.6797L923.156 57.25L924.25 58.4141C924.375 58.5547 924.555 58.625 924.734 58.625C925.094 58.625 925.391 58.3672 925.391 58C925.391 57.8047 925.312 57.6641 925.18 57.5312L922.562 55.0078C922.375 54.8203 922.195 54.7578 922.008 54.7578C921.812 54.7578 921.641 54.8203 921.453 55.0078L918.828 57.5312C918.695 57.6641 918.617 57.8047 918.617 58C918.617 58.3672 918.906 58.625 919.266 58.625C919.445 58.625 919.633 58.5547 919.758 58.4141L920.852 57.25L921.336 56.6719L921.273 57.8359V65.6953C921.273 66.0859 921.602 66.4141 922.008 66.4141ZM917.5 72.6562H926.5C928.195 72.6562 929.07 71.7812 929.07 70.1094V62.4297C929.07 60.7578 928.195 59.8828 926.5 59.8828H924.391V61.4375H926.398C927.109 61.4375 927.516 61.8125 927.516 62.5625V69.9688C927.516 70.7188 927.109 71.0938 926.398 71.0938H917.602C916.883 71.0938 916.484 70.7188 916.484 69.9688V62.5625C916.484 61.8125 916.883 61.4375 917.602 61.4375H919.633V59.8828H917.5C915.812 59.8828 914.93 60.75 914.93 62.4297V70.1094C914.93 71.7812 915.812 72.6562 917.5 72.6562Z" fill="#9DC1DD"/>
<path d="M229.062 70.2812C228.805 70.2812 228.594 70.1875 228.414 70.0156L222.336 64.0781C222.125 63.8594 222.016 63.6328 222.016 63.3516C222.016 63.0781 222.117 62.8359 222.336 62.6328L228.414 56.6875C228.594 56.5156 228.805 56.4219 229.062 56.4219C229.586 56.4219 229.992 56.8281 229.992 57.3438C229.992 57.5938 229.883 57.8359 229.711 58.0156L224.234 63.3594L229.711 68.6875C229.891 68.875 229.992 69.1016 229.992 69.3594C229.992 69.875 229.586 70.2812 229.062 70.2812Z" fill="#9DC1DD"/>
<path d="M249.594 70.0234L255.672 64.0781C255.883 63.8672 255.992 63.6328 255.992 63.3594C255.992 63.0859 255.883 62.8359 255.664 62.6328L249.586 56.6953C249.414 56.5234 249.195 56.4297 248.945 56.4297C248.422 56.4297 248.016 56.8359 248.016 57.3516C248.016 57.6016 248.117 57.8438 248.297 58.0234L253.766 63.3516L248.297 68.6953C248.117 68.875 248.016 69.1094 248.016 69.3672C248.016 69.8828 248.422 70.2891 248.945 70.2891C249.195 70.2891 249.414 70.1953 249.594 70.0234Z" fill="#9DC1DD"/>
</g>
</g>
<defs>
<filter id="filter0_dd" x="0" y="0" width="1036" height="753" filterUnits="userSpaceOnUse" color-interpolation-filters="sRGB">
<feFlood flood-opacity="0" result="BackgroundImageFix"/>
<feColorMatrix in="SourceAlpha" type="matrix" values="0 0 0 0 0 0 0 0 0 0 0 0 0 0 0 0 0 0 127 0"/>
<feOffset dy="25"/>
<feGaussianBlur stdDeviation="25"/>
<feColorMatrix type="matrix" values="0 0 0 0 0 0 0 0 0 0 0 0 0 0 0 0 0 0 0.1 0"/>
<feBlend mode="normal" in2="BackgroundImageFix" result="effect1_dropShadow"/>
<feColorMatrix in="SourceAlpha" type="matrix" values="0 0 0 0 0 0 0 0 0 0 0 0 0 0 0 0 0 0 127 0"/>
<feOffset dy="2"/>
<feGaussianBlur stdDeviation="20"/>
<feColorMatrix type="matrix" values="0 0 0 0 0 0 0 0 0 0 0 0 0 0 0 0 0 0 0.04 0"/>
<feBlend mode="normal" in2="effect1_dropShadow" result="effect2_dropShadow"/>
<feBlend mode="normal" in="SourceGraphic" in2="effect2_dropShadow" result="shape"/>
</filter>
<filter id="filter1_i" x="914" y="230.932" width="27.0324" height="16.0733" filterUnits="userSpaceOnUse" color-interpolation-filters="sRGB">
<feFlood flood-opacity="0" result="BackgroundImageFix"/>
<feBlend mode="normal" in="SourceGraphic" in2="BackgroundImageFix" result="shape"/>
<feColorMatrix in="SourceAlpha" type="matrix" values="0 0 0 0 0 0 0 0 0 0 0 0 0 0 0 0 0 0 127 0" result="hardAlpha"/>
<feOffset/>
<feGaussianBlur stdDeviation="1"/>
<feComposite in2="hardAlpha" operator="arithmetic" k2="-1" k3="1"/>
<feColorMatrix type="matrix" values="0 0 0 0 0 0 0 0 0 0 0 0 0 0 0 0 0 0 0.2 0"/>
<feBlend mode="normal" in2="shape" result="effect1_innerShadow"/>
</filter>
<filter id="filter2_d" x="47" y="37" width="942" height="58" filterUnits="userSpaceOnUse" color-interpolation-filters="sRGB">
<feFlood flood-opacity="0" result="BackgroundImageFix"/>
<feColorMatrix in="SourceAlpha" type="matrix" values="0 0 0 0 0 0 0 0 0 0 0 0 0 0 0 0 0 0 127 0"/>
<feOffset dy="2"/>
<feGaussianBlur stdDeviation="1.5"/>
<feColorMatrix type="matrix" values="0 0 0 0 0 0 0 0 0 0 0 0 0 0 0 0 0 0 0.08 0"/>
<feBlend mode="normal" in2="BackgroundImageFix" result="effect1_dropShadow"/>
<feBlend mode="normal" in="SourceGraphic" in2="effect1_dropShadow" result="shape"/>
</filter>
<filter id="filter3_b" x="-31.5485" y="-43.5485" width="1099.1" height="215.097" filterUnits="userSpaceOnUse" color-interpolation-filters="sRGB">
<feFlood flood-opacity="0" result="BackgroundImageFix"/>
<feGaussianBlur in="BackgroundImage" stdDeviation="40.7742"/>
<feComposite in2="SourceAlpha" operator="in" result="effect1_backgroundBlur"/>
<feBlend mode="normal" in="SourceGraphic" in2="effect1_backgroundBlur" result="shape"/>
</filter>
<linearGradient id="paint0_linear" x1="342" y1="426" x2="92.0409" y2="426.086" gradientUnits="userSpaceOnUse">
<stop offset="0.494632" stop-color="#6227D3"/>
<stop offset="1" stop-color="white" stop-opacity="0.15"/>
</linearGradient>
<linearGradient id="paint1_linear" x1="342" y1="491" x2="92.0409" y2="491.086" gradientUnits="userSpaceOnUse">
<stop offset="0.494632" stop-color="#6227D3"/>
<stop offset="1" stop-color="white" stop-opacity="0.15"/>
</linearGradient>
<linearGradient id="paint2_linear" x1="365" y1="556" x2="91.1859" y2="556.104" gradientUnits="userSpaceOnUse">
<stop offset="0.494632" stop-color="#6227D3"/>
<stop offset="1" stop-color="white" stop-opacity="0.15"/>
</linearGradient>
<linearGradient id="paint3_linear" x1="365" y1="520.467" x2="71.8144" y2="518.844" gradientUnits="userSpaceOnUse">
<stop offset="0.388492" stop-color="#1D1D1F"/>
<stop offset="1" stop-color="white" stop-opacity="0.15"/>
</linearGradient>
<linearGradient id="paint4_linear" x1="365" y1="455.467" x2="71.8144" y2="453.844" gradientUnits="userSpaceOnUse">
<stop offset="0.388492" stop-color="#1D1D1F"/>
<stop offset="1" stop-color="white" stop-opacity="0.15"/>
</linearGradient>
<linearGradient id="paint5_linear" x1="365" y1="591.467" x2="71.8144" y2="589.844" gradientUnits="userSpaceOnUse">
<stop offset="0.388492" stop-color="#1D1D1F"/>
<stop offset="1" stop-color="white" stop-opacity="0.15"/>
</linearGradient>
<linearGradient id="paint6_linear" x1="933.869" y1="300.708" x2="738.368" y2="352.204" gradientUnits="userSpaceOnUse">
<stop offset="0.410077" stop-color="#6327D3"/>
<stop offset="0.917112" stop-color="#6227D3" stop-opacity="0.1"/>
</linearGradient>
<linearGradient id="paint7_linear" x1="919.51" y1="329.98" x2="732.956" y2="356.967" gradientUnits="userSpaceOnUse">
<stop offset="0.421448" stop-color="#1D1D1F"/>
<stop offset="0.820978" stop-color="#1D1D1F" stop-opacity="0.1"/>
</linearGradient>
<linearGradient id="paint8_linear" x1="892.35" y1="325.55" x2="787.189" y2="285.383" gradientUnits="userSpaceOnUse">
<stop offset="0.292313" stop-color="#6227D3"/>
<stop offset="0.76359" stop-color="#6227D3" stop-opacity="0.05"/>
</linearGradient>
</defs>
</svg>
